<svg id="Layer_1" data-name="Layer 1" xmlns="http://www.w3.org/2000/svg" viewBox="0 0 1000 1000"><defs><style>.cls-1{fill:#1b5e79;opacity:0.1;}.cls-2{fill:#010101;}.cls-3{fill:#f1f1f1;}.cls-4{fill:#efefef;}.cls-5{fill:#d2ece9;}.cls-6{fill:#f6fdfd;}.cls-7{fill:#d3edea;}.cls-8{fill:#f4fcfc;}.cls-9{fill:#d4eeea;}.cls-10{fill:#d2ede9;}.cls-11{fill:#d4edea;}.cls-12{fill:#cce7e4;}.cls-13{fill:#f1fcfc;}.cls-14{fill:#f0fcfc;}.cls-15{fill:#040607;}.cls-16{fill:#030607;}.cls-17{fill:#060809;}.cls-18{fill:#060a0a;}.cls-19{fill:#d0eae7;}.cls-20{fill:#080c0d;}.cls-21{fill:#d6edea;}.cls-22{fill:#fefefe;}.cls-23{fill:#f0f1f0;}.cls-24{fill:#989898;}.cls-25{fill:#f4f4f3;}.cls-26{fill:#f3f3f2;}.cls-27{fill:#f0f1f1;}.cls-28{fill:#cbcbcb;}.cls-29{fill:#979797;}.cls-30{fill:#acacac;}.cls-31{fill:#020606;}.cls-32{fill:#030303;}.cls-33{font-size:175.64px;font-family:CronusRound, Cronus Round;}.cls-34{font-size:73.7px;font-family:Nunito-Regular, Nunito;}.cls-35{letter-spacing:0em;}.cls-36{letter-spacing:0em;}</style></defs><title>404</title><path class="cls-1" d="M587.82,528.68c-9.05,3.19-18.79,2.6-28,5-9,2.31-18.33-.51-27.2,2.35-1.57-1.56-1-3.47-.69-5.22,4.59-29.07-1.2-56.52-12.87-83.06-.82-1.88-1.47-3.83-2.32-5.68-1.67-3.68-1-6.76,2.13-9.27,13.48-10.67,15.2-24.93,12.09-40.47-1.21-6.06-1.87-11.81-.66-18.11,2.82-14.57-12.14-31.14-28-31.8-17.79-.74-33.8,5-49,13.53a73.37,73.37,0,0,0-13.21,8.87c-14.84,13.15-15.2,33.66.36,46.12a150,150,0,0,1,21.17,20c6.72,7.91,16,11.61,26.78,11.38,10.32-.22,11.22.63,14.85,10.08,7.29,19,12.89,38.37,14.3,58.77.46,6.62-.78,13-2.68,19.31-.46,1.52-1.06,3.18-3.11,3.34-8-3.53-17-3.07-25-7-4.26-2.1-8.68-3.89-10.83-8.35-1.37-2.83-3.2-2.94-5.32-1.75-16.16,9.07-34.37,6.88-51.7,9.5-14.46,2.18-29,4.15-43.64,3.47-8.63-.4-17.47-.4-25.81-3.47A147.46,147.46,0,0,1,304,502.85c-7.06-3.9-12.15-9.9-17.13-16-.9-1.35-.94-3.05-1.93-4.41-6.25-8.57-7-17.69-2.88-27.42.71-1.67,2.74-3.74.81-5.53s-3.81-.15-5.53.9c-3.91,2.37-8.56,2.2-12.47,1.7-5.77-.74-11.72-.27-17.37-2-5.94.42-10.25-4.41-15.9-4.95-10.07-3.32-18.05-10.06-26.42-16.15-2.67-2.79-5-6-8.8-7.46-11.84-9.31-19.51-21.56-25-35.36-5.24-15.19-7.26-30.49-1.23-45.95,1.41-3.6,3.26-7,4.9-10.54A50.6,50.6,0,0,1,193.77,310c7.12-4.31,9.16-11.55,4.66-17.65a35.3,35.3,0,0,1-6.16-11.84h0c-5.1-17.87,5.6-29.33,23.35-35.6,2.89,0,5.46-1.19,8-2.27,1.25-.53,3-1.18,2.27-2.89-.29-.7-2.05-.78-3.14-1.15.48-2.73,2.92-2.54,4.76-3,21.63-5.43,43.21-11.09,65.4-13.88,15.49-1.95,31-2.83,46.12,2.22,8.92,3,9.49,4.05,6.19,12.63-4.74,12.36-3.08,24.47,1.09,36.58,4.66,13.52,13,25,20.35,37,4,6.5,10.75,9.17,18.13,7.63,6.86-1.43,10.89,1,14,6.7a88.4,88.4,0,0,0,6.14,9.18,15.24,15.24,0,0,0,6.58,5.36c5.89,2.39,10.44-1.05,9.57-7.37-.76-5.47-4.06-9.78-7.05-14.16-5.57-8.15-5.52-8.72,2.83-14.3,3.74-2.5,7.4-5.11,11-7.87,5.25-4.08,7.17-3.76,11,1.56,2.5,3.49,4.74,7.17,7.53,10.45,1.9,2.24,4.1,4,7.12,4.45,5.76.88,9.2-2.58,7.91-8.28-1.54-6.78-5.63-12.25-10-17.43-3.72-4.43-5.05-8.4-2.81-14.43,2.92-7.89,1.76-16.16-5.35-21.79-7.59-6-13.73-13.43-20.82-19.89-7.94-7.24-16.73-13-27-16.55-9.09-3.11-18.09-3.48-27,.2-4.42,1.82-8.13,1.19-12.21-1-12.64-6.89-26.42-9.64-40.69-10.26-15.62-.68-31,1.2-46.33,4.16a29.6,29.6,0,0,1-6.08.7c-4.23-1-8.43.29-12.66.31-2.67,0-4.42,1.77-5.88,3.83a15.93,15.93,0,0,1-7.19,2c-7.42-.7-8.17-1.92-5.29-8.74.87-2.06,2.11-4,1.81-6.37,1.36-7.88,6.91-13.5,11-19.86,1.34-2.09,2.45-4.71,5-5.94,5-1.54,6.62-6.79,10.59-9.61,4.6-3.26,9.53-6.1,13.75-9.9a117.89,117.89,0,0,1,48.5-18.46c11.54-1.67,23.61-2.13,35.61,1.45,9.14,2.73,18.21,5.8,27.43,8.29,3-.11,4.41,2.5,6.64,3.69,1.24,1,2.48,2,3.7,3.09s2.81,2.86,4.69,2.08c2.05-.85,1.3-3.15,1.43-4.9.45-6,5.26-9.84,7.39-15a54.38,54.38,0,0,1,14.78-13.5c25.21-14.19,52.31-16.86,80.55-13.74,20.78,2.3,40.52,7.38,57.73,19.68,18.07,12.91,29.39,29.87,28.62,52.91-.41,12-5.11,22.92-11.43,33.09-1,1.55-2.12,3-3,4.61-5.37,10.26-3.12,15.78,8,18.53,18.55,4.59,36.35,11.13,51.74,22.54,20.43,15.14,34.42,38.17,30.2,67.21C664,344.16,656.06,361.92,648.62,380c-2.1,5.07-4.76,9.94-5.55,15.49-1.4,9.88,4.78,16.15,11.55,20.89,17,11.87,19.14,27.91,14.13,45.95-4.84,17.46-13.81,32.61-28.14,44.19-3.81,1.4-6.81,4.12-10.17,6.27-5.43,3.48-10.73,7.09-17.42,7.86-3.48.41-6.28,2.63-9.24,4.32h0C598.52,526.44,592.9,526.39,587.82,528.68Z"/><path class="cls-2" d="M238.38,211.87l6.68-1.59c5.06-4.62,11.91-2.39,17.6-4.58,16.75-2.65,33.44-5.72,50.54-5.13,16.58.56,32.51,3.48,46.95,12.14a5.26,5.26,0,0,0,5.61.27c12.88-5.95,25.49-4.3,37.79,1.83A100.84,100.84,0,0,1,427.37,232c5.77,5.41,10.54,11.7,17.21,16.37,7.45,5.23,9.33,17.56,5,26.33-1.55,3.13-1.2,4.89.92,7.42,4.87,5.79,9.41,11.87,12.18,19,1.59,4.1,2,8.17-1.88,11.14-4.18,3.18-8.55,2.25-12.45-.71-4.67-3.53-7.66-8.51-10.46-13.49-2.42-4.31-4.29-6-8.81-1.79s-10.07,7.71-15.48,11c-3,1.84-2.87,3-.89,5.45A61.23,61.23,0,0,1,422,327.76c1.8,4.43,2.62,8.91-1.88,12.19s-9.06,1.7-12.89-1.53c-5.09-4.29-8.12-10.22-11.57-15.76-2.07-3.32-4-4.71-8.38-3.52-8.91,2.43-17.23,0-22-8-6.71-11.17-14.66-21.69-19.3-34.06-5.7-15.2-8.36-30.44-.24-45.66,1.6-3-.31-3.37-2.22-4.18-11.38-4.85-23.35-5.74-35.5-5.19-25.31,1.14-49.64,7.66-74.06,13.61-3.74.91-7.45,2-11.17,2.92-12.87,2.27-25.67,4.95-38.78,5.72-22.58,1.33-44.55-1-65.31-10.6-28.77-13.3-46.17-39.77-43.94-68.9.61-8.1-1.74-11.73-8-16.33-26-19.15-42.13-43.79-39.07-77.74,1.27-14.17,6-27.49,10.64-40.82,1.5-4.32,4.06-4.63,7.53-2.38,2.08,2.76.63,5.47-.22,8.11Q41.86,47.33,38.78,59.2c-10.26,39.27,13.4,72.05,41.48,87.28,16.11,8.74,33.43,11.15,51.6,9.88,11.93-.82,23.6-2.26,34.83-6.49,19.63-7.41,34.67-27.22,35.07-45.6.2-9.47-4.33-15.51-12.48-19.23C168,75.33,148,79.62,129.13,91.37c-14.47,9-25.52,21.65-33.82,36.58a23,23,0,0,0-1.81,3.9c-.49,1.46-.6,2.88,1.06,3.68s2.78,0,3.69-1.29c1.57-2.15,2.77-4.54,4.24-6.76C115.87,107.26,133,91.71,156.88,85c8-2.23,16.27-2.62,24.23,0,14.73,4.81,19.84,16.65,13,30.53C185,134.32,169.83,147,149.58,151c-30.69,6-60.15,1.32-83.79-20.57-21.43-19.83-29.5-45.17-23-74.32A153.19,153.19,0,0,1,48.1,37.79c.9-2.53,2-4.94,4.19-6.63,1.87-1,3.74-1.82,5.59,0s.75,3.84.1,5.71c-3.58,10.24-7.23,20.52-8,31.39-1.88,25.08,8.22,44.82,27.55,60.36,3.86,3.1,5.57,3.27,8.21-1.77C98.43,102.48,117,84,143.32,74.64c16.94-6,33.77-5.06,50.1,2.59,14.18,6.63,20.29,18.38,16.61,33.59-7.05,29.18-26.5,45.47-55.21,51.67-17.38,3.76-34.87,4.52-52.39,1.21-3.81-.71-4.78,0-5,4-.82,17.42,8,29.51,21.22,39.14,11.14,8.14,23.95,12.28,37.52,14,23.43,2.92,46.51.81,69.25-5.42C229.43,212.93,234,212.62,238.38,211.87Z"/><path class="cls-2" d="M511.77,533.77c5-10.18,5-21,3.29-31.77a217.85,217.85,0,0,0-15.53-54.06c-1.39-3.17-2.84-4.64-6.73-4.23-16.44,1.74-29-4.89-38-18.57a25.44,25.44,0,0,0-9.89-8.74c-20.49-10.81-23.66-39.13-5.49-53.09,18-13.84,38.24-22.35,61.56-22.93,16.65-.41,38.09,21.12,30,38.66-.9,1.94-.1,3.58.27,5.33,1.44,6.81,2.82,13.6,3,20.62.2,11.7-4.24,21.2-13.51,28.14-3.59,2.69-4.19,4.64-2.25,8.86,11.5,25,19.1,50.93,16.62,78.89-.45,5.07-1.53,10.07-2.33,15.11-.84,2.29-1.62,4.62-2.56,6.88-1.76,4.24-5.87,9.15-4.83,12.48,1.1,3.53,7.18,5.39,10.85,8.28,16.74,13.12,29.93,28.47,31.46,51,.82,12-.38,23.67-5.25,34.78a28,28,0,0,1-12.88,14.25c-2,1-3.84,1.43-5.64-.28s-1.54-3.57-.08-5.39c13-9.56,15.5-23.47,15.37-38.18-.16-17.42-8-31.48-20.74-42.88-4-3.53-7.9-7.15-12.5-9.89-1.66-1-3.14-2.53-6.18-2.06,3.8,4.11,8.31,6.15,11.81,9.42,18.16,17,28.23,37.05,23,62.45-1.62,7.81-4.72,15.42-13.65,18.17a26.93,26.93,0,0,1-4.64,1.35,3.39,3.39,0,0,1-3.74-2.52,3.11,3.11,0,0,1,1.7-4.08c13.86-7.27,14.48-19.63,12.29-32.8-3.33-20.05-15.48-33.65-32.48-43.72-3.2-1.89-4.58-.25-6.69,1.42-24.44,19.32-49.95,37-79.35,48-29.6,11-59.08,9.47-87.42-4.43-15.09-7.41-27.16-18.42-31.49-35.57-3.33-13.14,1.61-23.74,11.72-32,12-9.82,26.46-14.17,41.36-15.39,40.43-3.29,80.87-3.46,120.92,4.44a85.32,85.32,0,0,1,17,5.06c4.79,2,7.17.71,8.86-3.63C509.79,538.65,511.63,536.55,511.77,533.77Z"/><path class="cls-3" d="M52.29,31.16c-4.47,12.51-9.14,25-9.9,38.45C40.19,108.37,67.26,141.4,107.2,149c17.27,3.27,34.48,4.92,51.26-2.35,14.13-6.13,25.54-15.5,33-29.06,9.41-17.1,1.33-31.3-18.15-32.54-16.22-1-30,5.27-42.67,14.45A97.27,97.27,0,0,0,100.18,135c-2.24,4.48-4.51,3.21-7.72,2-4.73-1.81-1.55-4.4-.55-6.23,13.51-24.81,32-43.93,60.39-51a55,55,0,0,1,36,3.09c13.32,5.77,17.8,14.23,14.21,28.49-5,19.86-17.14,33.92-36.56,40.53-24,8.15-48.78,10-73,1.83-30.2-10.22-49.89-31.46-57.2-62.77-3.58-15.33.41-30.43,4.89-45.25,1.82-6,5.19-11.6,5.15-18.13C47.88,29,49.45,31.18,52.29,31.16Z"/><path class="cls-4" d="M540.81,655c16.5-13.1,15.7-30.25,10.6-47.93-4.93-17.08-16.24-29.43-31-38.88-1.32-.84-4.58-.81-2.92-4s3.62-2.25,5.92-.69c15.83,10.69,30.33,22.65,35.25,42.22,3.35,13.32,2.93,26.78-2.4,39.7-2.4,5.84-6.09,10.62-12.5,12.57C544.75,655,542.68,655.13,540.81,655Z"/><path class="cls-5" d="M386.38,145.35a132.77,132.77,0,0,1-26.59-7.67c-10-3.9-19.7-2.36-29.5-3.46-7.51-.84-13.54,3.58-20.5,4.72-11.84,1.95-22.28,7.79-32.4,14a7.4,7.4,0,0,1-4.06,1c-.42-.28-.57-.56-.43-.84s.28-.43.42-.43c7.95-7.44,18-11.13,28-14.22,24.64-7.64,49.53-8.52,74.17.65,3.23,1.2,6.41,2.52,9.61,3.79C385.79,143.59,387.08,144,386.38,145.35Z"/><path class="cls-6" d="M171.39,386.11c4.16,6.36,6.9,13.53,11.62,19.62a88.17,88.17,0,0,0,14.14,14.81c3.28,2,5.34,5.39,8.62,7.37,7.69,7.1,17.2,11.47,25.82,17.17-7.23,1.47-11.53-4.22-16.32-7.59-4-2.78-8-6.09-12.17-7.82-8.78-3.63-11.66-13.42-19.94-17.13C182.27,402.38,171,396.83,171.39,386.11Z"/><path class="cls-7" d="M247.49,450c5.66.2,11.28-.21,17,1,4.66.95,9.73,1,13.91-2.63a5.38,5.38,0,0,1,5.84-.42c2.29,1.19.11,3.26,0,4.91a15.71,15.71,0,0,1-1.56,5.21c-3.34,7.75-2.5,15.22,2,22.11,1.43,2.19,2.38,4.14,2.18,6.67-9.5-11-11.36-23.05-4-36.9C270.59,453.77,259,454.58,247.49,450Z"/><path class="cls-8" d="M192.27,280.48c3.52,4.49,5.92,9.62,8.58,14.62s1.1,10.17-2.63,12.62a85,85,0,0,0-23.16,21.9c2.1-9.36,9.36-14.68,16.53-19.42s9.52-10.36,5.33-18.08C194.93,288.45,191.43,285.31,192.27,280.48Z"/><path class="cls-9" d="M304,502.85c3.22.41,5.39,2.72,7.82,4.46,10.46,7.48,22.34,12,34.16,16.62a21.87,21.87,0,0,1,3.53,2.25c-11.85-1.47-22.06-7-32-13.12C312.73,510.09,307.51,507.57,304,502.85Z"/><path class="cls-10" d="M603.78,525a9.69,9.69,0,0,1,8.76-5.85c9.31.2,15.21-6.12,22-10.65a10.21,10.21,0,0,1,6.1-1.95C629.9,515.78,617.85,522.39,603.78,525Z"/><path class="cls-8" d="M215.63,244.89c-4.51,2.65-9.16,5.1-13.51,8-10,6.7-10.81,16.87-9.84,27.59-4.91-11.56-1.59-21.76,10.26-30.16C206.39,247.6,210.06,243.75,215.63,244.89Z"/><path class="cls-11" d="M273.32,152.7V154c-1.7,7-9.73,6.18-13.51,10.84-1.48,1.82-3.95,3.28-4.57,5.52-1,3.61-3.05,2.64-5.29,2C256.47,164.3,263.8,157.2,273.32,152.7Z"/><path class="cls-12" d="M238.38,211.87a46.37,46.37,0,0,1-12.92,3.46c5.1-4.6,4.35-12.11,8.53-17.16,2.59,2.21.24,4.1-.5,6C230.7,211.3,230.75,211.43,238.38,211.87Z"/><path class="cls-13" d="M424.47,119.6l-14.78,13.5C413.06,126.89,417.36,121.71,424.47,119.6Z"/><path class="cls-10" d="M587.82,528.68c2.48-4.91,7.67-1.52,11.18-3.59,1.2-.71,3.17-.13,4.78-.14A40,40,0,0,1,587.82,528.68Z"/><path class="cls-14" d="M386.38,145.35l-1.28-2.43c3.78-.34,5.64,2.21,7.38,4.91Z"/><path class="cls-15" d="M557.72,261.61a2.83,2.83,0,0,1-2.92-1.79c-.78-1.81-.9-3.81.84-5q11.82-8.22,23.82-16.17c1.47-1,3.23-.33,4.36,1.13a3,3,0,0,1-.26,4.42c-7.7,6.79-16.8,11.58-25.24,17.31A1.88,1.88,0,0,1,557.72,261.61Z"/><path class="cls-16" d="M344.75,413.45c-.08,2.7-1.11,3.75-2.66,4.61-6.59,3.63-13.12,7.35-19.69,11-2.55,1.43-5.39,3.09-7.35-.48s1.14-4.52,3.47-5.8c6.76-3.73,13.5-7.51,20.25-11.25C342,409.76,344.13,410.4,344.75,413.45Z"/><path class="cls-17" d="M512.88,216.1c-.19,1.81-.48,4.84-.86,7.86-.24,1.95-.93,3.68-3.31,3.57a3.65,3.65,0,0,1-3.79-3.94c.07-5.28.36-10.55.62-15.82a3.33,3.33,0,0,1,3.53-3.42c2.53-.09,3.68,1.47,3.79,3.81S512.88,212.63,512.88,216.1Z"/><path class="cls-18" d="M579.25,333.12,565,329.92c-2.12-.47-3.27-1.7-2.81-3.92.42-2,1.91-3.46,3.9-3.13,5.42.89,10.8,2,16.14,3.29,2.24.53,2.63,2.43,2,4.4C583.36,332.87,581.5,333.43,579.25,333.12Z"/><path class="cls-19" d="M293,348.13c7.38-3.92,14.91-3.12,22.35-.41,1.9.69,1.19,3.06.56,4.28-.9,1.74.86,4.85-2.67,5.29a64.62,64.62,0,0,1-18.16.15c-2.75-.44-5.45-2.07-5.71-5.5-.19-2.48,1.17-3.77,3.66-3.83.59,6.72,5.64,5.76,10,5.59,2.67-.1,7.5,1.18,7.47-1.6,0-3.78-4.78-2-7.53-2.36C299.67,349.26,296.06,350.58,293,348.13Z"/><path class="cls-20" d="M396.56,449.81c.23-1.81.54-4.24.84-6.66.28-2.16,1.5-3.32,3.67-3.25,2.49.09,3.73,1.55,3.62,4-.13,3.05-.61,6.08-.68,9.13-.06,2.7-.51,5.17-3.75,5.11s-3.82-2.51-3.71-5.22C396.58,452.06,396.56,451.25,396.56,449.81Z"/><path class="cls-12" d="M262.66,205.7l-17.6,4.58c-1.35-2.51.26-3.12,2.24-3.6A45.89,45.89,0,0,1,262.66,205.7Z"/><path class="cls-21" d="M205.77,427.91c-4.16-1-6.17-4.42-8.62-7.37C201.38,421.41,203.35,424.92,205.77,427.91Z"/><path class="cls-3" d="M370,218.87c7.76-3.28,15.2-2.82,22.47-.44,16.08,5.26,28.28,16,39.06,28.59,1.66,1.93,1.12,3.63.47,5.64A44.59,44.59,0,0,1,417.17,274a129.58,129.58,0,0,1-42.46,22.62c-6,1.87-9.67,1-12.95-4.78-5.45-9.65-10.83-19.23-12.88-30.26-1.6-8.61-1.21-17,2.68-25.15,1.45-3,2.55-2.87,4.79-.82,7.59,7,16.16,4.28,19.38-5.48C377.64,224.38,372.34,223,370,218.87Z"/><path class="cls-22" d="M131,144.3a117.09,117.09,0,0,1-22.32-2.37c-2.58-.5-3.13-1.41-1.85-3.58,12.71-21.63,29.15-38.81,54.45-45.25A32.75,32.75,0,0,1,175.84,93c12,2.45,15.68,9.89,9.62,20.58-7.88,13.91-19.8,23.13-35,28A56.68,56.68,0,0,1,131,144.3Z"/><path class="cls-23" d="M180.75,229.69C207,229.18,231.84,221.18,257,215c23.34-5.76,46.94-9.38,71.05-5.72,14,2.12,26.81,7.13,37.73,16.41,1.75,1.48,3.64,3,1.13,5.44-1.89,1.87-3.41,1.57-5.2-.2-15.51-15.32-35-17.26-55.28-16.13-28.55,1.58-55.88,9.71-83.54,16.07-26.95,6.2-54.07,9.28-81.41,2.87C116.85,227.93,97,215.58,86.18,191.5c-4.11-9.18-5.16-18.87-4.3-28.79.14-1.57-.38-4.69,2-4s6.74-.11,6.56,4.64c0,.41-.06.81-.09,1.22-2,23.44,9.77,39.36,28.51,51.08C137.81,227.45,159,230,180.75,229.69Z"/><path class="cls-24" d="M439.84,253.76c5.67,6.54,6.46,15.76.7,22.05-15,16.29-32.55,29-53.78,36-6.93,2.29-12.24-.19-16-6.21C398.81,295.34,427.13,285.36,439.84,253.76Z"/><path class="cls-25" d="M443.71,284.28a16.55,16.55,0,0,0,1.11,2.05c3.89,5.43,8,10.74,11,16.75.55,1.1,1.23,2.38.2,3.36-1.39,1.33-2.9.21-3.65-.8-4.09-5.52-8.16-11.07-11.88-16.84C439.14,286.75,441.48,285.76,443.71,284.28Z"/><path class="cls-26" d="M402.47,313.35a2.44,2.44,0,0,1,2.6,1.28,102.25,102.25,0,0,1,10.31,15.74c.61,1.22,1.57,2.83,0,3.82-1.38.87-2.89-.21-3.69-1.31-3.94-5.4-7.85-10.83-11.49-16.43C398.69,314.13,401.46,314.14,402.47,313.35Z"/><path class="cls-22" d="M488.72,563.15c-.28.88-.28,1.16-.41,1.25-26.8,19.74-54.75,37.39-88.11,43.58-19.91,3.7-38.65-.72-55.42-12.24-7-4.82-13.94-10.58-12.63-20.17s9.87-12.22,17.52-15.17,15.49-3.72,23.47-4c34.76-1.19,69.52-1.88,104,4.17C481,561.25,484.7,562.25,488.72,563.15Z"/><path class="cls-27" d="M500.3,552.45c-1.7,3.25-3.41,5.33-7.34,4.18-24.83-7.28-50.43-8-76-8.13-20-.12-40.12-1.23-60,2.18a51.41,51.41,0,0,0-21,8.16c-13.71,9.54-15.35,23.42-3.82,35.52C344.83,607.69,361,614.08,379,615.85c20.79,2,40.16-3.11,58.69-12.11a336.85,336.85,0,0,0,48.06-28.24c34-24.12,43.15-48.49,34-89.19a223.36,223.36,0,0,0-13.24-40.74c-.75-1.72-2.62-3.57.59-4.93,2.64-1.12,3.2.83,3.95,2.46,11.11,24.29,18.37,49.44,16.64,76.5-1.05,16.24-5.9,31.6-18.07,42.49-29.15,26.07-61,48.5-99.68,57.86-24.89,6-49.31,1.73-71.57-11.42-11.22-6.63-19.95-15.7-22.31-29.29-1.45-8.3,1.08-15.34,7.19-21.1,9.5-8.95,21.41-12.38,33.79-14.75a159,159,0,0,1,33.58-2.8c29.21.7,58.58-1,87.45,5.27A138.16,138.16,0,0,1,500.3,552.45Z"/><path class="cls-28" d="M488.3,349.28a33.1,33.1,0,0,1,18.13-.66c7.44,1.73,9.91,6.76,7.21,13.91-2,5.29-5.7,9.43-9.82,13.13-12.27,11-26.39,18.39-42.77,21a27.93,27.93,0,0,1-18.41-2.95c-9.39-5.22-10.68-12.78-3.12-20.35C451.36,361.55,466,354.7,482,350.45a1.91,1.91,0,0,1,3,.7,17.82,17.82,0,0,0,1.82,16.31c1.5,2.41,3.15,5.39,6.65,3.7s3.45-4.86,2.3-8c-1.7-4.62-4-8.93-7.72-12.31A1.39,1.39,0,0,1,488.3,349.28Z"/><path class="cls-3" d="M461,420.76c23.79-5.29,45.61-13.64,63.39-30.45,6.47,17.91,1,33.69-14.16,41.12C490,441.34,471.43,437.45,461,420.76Z"/><path class="cls-29" d="M439.38,401c32.48,8.21,69.38-9.46,82.76-39.37,3.72,5.52,3.84,11.05,1.18,16.7a32.12,32.12,0,0,1-10.07,12.16c-15.15,11.23-31.87,19-50.52,22.23C453,414.41,444.78,410.24,439.38,401Z"/><path class="cls-30" d="M484.63,351.77,482,350.45c1.91-1.37,4.06-1.37,6.26-1.17l0,1.36C487.41,352.16,486.34,353,484.63,351.77Z"/><path class="cls-31" d="M293,348.13c5.48,0,10.95,0,16.43-.05,2.46,0,4.56.5,4.67,3.49.13,3.36-2.06,3.92-4.83,3.87-4.26-.08-8.52.08-12.78,0-5.47-.15-6.26-1.9-3.46-7.3Z"/><path class="cls-32" d="M450.69,374.62c-.08-3.59,1.5-6.28,5.31-6.93,3.58-.61,5.88,1.29,6.77,4.74,1,3.75,2,7.51,2.68,11.31.91,4.72-2.75,6.71-6,8.07-3.61,1.5-4.87-1.93-6.09-4.48C451.45,383.39,451.35,379,450.69,374.62Z"/><path class="cls-32" d="M484.63,351.77l3.64-1.13c4.72,1.79,10.88,12.44,9.88,17.18a7.69,7.69,0,0,1-5.58,5.87c-3,.94-4.32-1.42-5.68-3.48a38.73,38.73,0,0,1-4.75-10.45C481.17,356.46,481.75,353.8,484.63,351.77Z"/><text class="cls-33" transform="translate(738.51 486.83)">404</text><text class="cls-34" transform="translate(241.82 802.14)">The page is lo<tspan class="cls-35" x="456.28" y="0">s</tspan><tspan class="cls-36" x="491.29" y="0">t</tspan></text></svg>