<svg id="Layer_1" data-name="Layer 1" xmlns="http://www.w3.org/2000/svg" viewBox="0 0 859 1041"><defs><style>.cls-1,.cls-11,.cls-3,.cls-8,.cls-9{fill:#1b5e79;}.cls-1{opacity:0.1;}.cls-2{fill:#0c0c0c;}.cls-4{fill:#5c5c5c;}.cls-5{fill:#fefefe;}.cls-6{fill:#fa5151;}.cls-7{fill:#f9f9f9;}.cls-8{font-size:120px;font-family:CronusRound, Cronus Round;}.cls-9{font-size:90px;}.cls-11,.cls-9{font-family:Nunito-Regular, Nunito;}.cls-10{letter-spacing:0em;}.cls-11{font-size:60px;}.cls-12{letter-spacing:0em;}.cls-13{letter-spacing:0em;}.cls-14{letter-spacing:0em;}</style></defs><title>404</title><path class="cls-1" d="M849,952H12.22S54.43,639.8,430.58,639.8C828.61,639.8,849,952,849,952Z"/><path class="cls-2" d="M510.6,118a8.8,8.8,0,0,1-8.77,0Z"/><path class="cls-3" d="M674.28,431.77c-.32-2.74-.71-5.46-1.26-8.17-6-29.61-13.5-58.83-23.54-87.35-5.77-16.4-12.31-32.48-21.18-47.5-19.63-33.22-43.22-63.55-68.1-92.93-4.75-5.61-9.7-10.66-10.68-19-4.24-36.08-14.08-70.57-31.51-102.67a142.91,142.91,0,0,0-26.87-35.61C474.69,22.93,455.6,12.14,432.44,10H426.6a16.73,16.73,0,0,1-8.77,0H413c-3.84,1.3-7.94.82-11.84,2.1-15.13,5-28,13.64-39.32,24.5C341.51,56,326.74,79.47,313.9,104.17c-15.9,30.6-28.25,62.67-38.1,95.69-2.11,7.08-4.81,13.63-9.72,19.33-3.79,4.42-7.3,9.11-10.73,13.84-18.12,25-35.18,50.45-50.07,77.48C187.26,343.24,170,376.45,166,414.3v23.38c2,9.33,7,11,14.57,4.79a68.65,68.65,0,0,0,10.61-11.26c12.52-16.25,22.86-33.84,33-51.65,14.52-25.61,28.2-51.65,40.78-77.42-1.22,4.25-2.7,9.23-4,14.26-8.66,34.17-15.88,68.62-19.51,103.74-1.83,17.76-2.6,35.59-1,53.37,1.73,19.46,6.48,38.4,12.33,57a516.18,516.18,0,0,0,40.9,96.17c1.76,3.17.93,4.51-2.15,5.77A59.44,59.44,0,0,0,278,640.11c-5.36,4.08-10.05,8.8-12.61,15.17s-.31,10.75,6.22,12.81a20.14,20.14,0,0,0,8.67.44c5.7-.71,11.33-1.95,17.56-3.19-1,2.29-2.24,3.33-3.19,4.58-8.22,10.78-6,21.54,5.91,28a33.69,33.69,0,0,0,24.55,3.18c11-2.59,20.24-8.55,29.06-15.32,3.53-2.72,6.67-5.93,10.45-8.87.53,3.73.14,7,.31,10.21.53,10.17,5.93,17.39,15.82,19.66,20.79,4.78,37.76-5.32,33.85-30.11a145.36,145.36,0,0,0-6.07-23.15c9,.41,17.31,1.73,25.72,1.7,11.18,0,22.35.5,33.54.08,7.3-.28,7.21-.09,4.72,7-3.17,9.07-5.76,18.3-5.26,28,.66,12.67,7.64,20,20.17,21.35a77.42,77.42,0,0,0,8.75.12c12.16-.11,20.41-7.9,21.35-20,.12-1.47-.27-3,.44-4.62,1.48,1.29,2.5,2.56,3.69,3.65,13.61,12.42,31.12,13.66,44.32,3.13,8.47-6.76,9.59-14.29,3.4-23.36,9.5,3.06,19,5.61,29,5,10.31-.59,17.29-8.35,16.25-18a23.28,23.28,0,0,0-8.53-15.88A44.77,44.77,0,0,0,588.9,633c8.56-1.07,11.78-5.41,12.74-13.32,1.88-15.45,4.28-30.86,6.14-46.32,2.14-17.87,4.08-35.76,5.35-53.72q1.15-16.25,2.08-32.51c1.22-21.58,1.76-43.18-.62-64.63-3.44-31-13-60.52-24.16-89.54a40.93,40.93,0,0,1-2.38-5c-.11-.49-.67-.8-.5-1.37a1.24,1.24,0,0,0,.28.67c.61,1.37,1.27,2.78,1.86,4.21a583.69,583.69,0,0,0,33.67,55.25c8.79,12.88,18,25.42,29.15,36.42,5,4.91,10.4,9.34,17,12C673.88,437,674.81,436.25,674.28,431.77Z"/><path class="cls-4" d="M249.51,527.17c1.31.65,1.06,1.3,0,1.94Z"/><path class="cls-5" d="M432.48,648.05a554.91,554.91,0,0,1-87.64-8.83c-3.47-.64-5.52-2-6.76-5.58-13.7-39.49-24.36-79.75-30.09-121.19-3.79-27.39-5.47-54.91-2.13-82.49,3.16-26.18,10.13-51,26.72-72.28,16-20.45,37.25-32.54,62.43-37.17,43.13-7.92,85.33-4.63,125.11,14.89,32.83,16.1,50.59,43.84,56.45,79.41,6.11,37.13-.06,73.29-10,109-11,39.48-26.92,77-46.11,113.21-1.52,2.85-3.51,3.78-6.34,4.31A423.37,423.37,0,0,1,432.48,648.05Z"/><path class="cls-6" d="M444.43,194.31c3.56,0,7.14.2,10.69-.06,3-.22,3.93,1.33,4.4,3.84,3.07,16.39,5.86,32.81,6.77,49.48a66.92,66.92,0,0,1-1.66,20.73c-.88,3.39-2.3,6.66-6.14,7.41s-6.53-1.5-8.8-4.16c-5.74-6.7-8.15-15-10.44-23.23-4.72-17.06-6.6-34.59-8.45-52.13-.28-2.67.76-3,3-2.82,3.54.34,7.1.53,10.66.79Z"/><path class="cls-6" d="M407,675.42c-.74-7.32-3.52-14.06-5.81-20.95-.81-2.44-2.1-3.37-4.8-3.71a692.81,692.81,0,0,1-78.26-14.34c-3.43-.85-6.9-2.83-10.39-2-12.24,3.07-23.77,7.71-32.27,17.63-1.95,2.27-5.24,5.12-3.74,7.85,1.65,3,5.85,1.7,9,1.31,14.22-1.79,27.69-6.4,41.1-11.17,2.1-.75,3.28-.9,4.47,1.51,1.33,2.69-.17,3.3-1.93,4.27-8,4.41-15.68,9.23-22,15.9-9.15,9.67-7.19,17.33,5.4,21.85.46.17.94.25,1.41.38,10.71,2.93,20.12-.68,29.12-5.93,11.76-6.85,21.57-16,30.38-26.31,1.49-1.75,2.6-2.31,4.83-1s1.84,2.63,1.27,4.39c-1.21,3.69-2.41,7.37-2.57,11.29-.61,3.88-1.1,7.75,0,11.63,1.12,7.16,4.77,11.39,11.47,12.44a31,31,0,0,0,13.93-.64c5-1.53,8.48-4.47,9.42-9.85C408.71,685.12,408.21,680.27,407,675.42Z"/><path class="cls-6" d="M606.69,655c-.85-4.53-4.09-7.26-7.6-9.62-7-4.7-15-6.7-23.05-8.67-1.23-.3-2.21.26-3.29.57-28.28,8-57,13.65-86.34,15.82-1.47.11-2.89.15-3.58,1.89-4.74,11.92-9.46,23.89-8.36,37.07.47,5.67,3.25,10.18,9,12.17a28.79,28.79,0,0,0,14.89,1c7.72-1.46,11.39-6.05,11.9-14.27,0-2.25,0-4.51,0-6.76.23-5.12-1.37-9.92-2.94-14.65-.74-2.26-.14-3,1.78-3.93,2.18-1.06,3.09-.39,4,1.56A57.18,57.18,0,0,0,521,679.41c5.57,6.61,11.5,12.81,20.64,14.32a17.06,17.06,0,0,0,7.72,0c2.71.13,5-1.09,7.34-2.21,11.73-5.69,12.71-12.71,3-21.51a77.68,77.68,0,0,0-16.94-11.29c-1.91-1-2.61-1.8-1.5-4.06s2-2.2,4-1.3c6.94,3.07,13.91,6.15,21,8.76,10,3.67,20.23,7,31.16,6.46,3.82-.18,7.47-.81,9.16-5A10,10,0,0,0,606.69,655Z"/><path class="cls-7" d="M306,446.64l.48.06"/><path class="cls-5" d="M426.54,114.5c-1.91-8.41-4.69-16.52-10.69-23-6.77-7.35-14.63-7.27-21.43.07a35.66,35.66,0,0,0-6.8,11.09c-6.93,17.22-7.45,35-4.26,53,1.47,8.34,4.13,16.31,9.24,23.21,7.54,10.17,17.68,10.16,25.2-.06,4.05-5.52,9.19-22.57,9.59-24.66C429.42,140.86,429.51,127.63,426.54,114.5Zm-.05,37.56c-.55,2-1.11,4-1.66,6.06-2.23,4.7-4.94,8.91-10.95,8.69-4.42-.16-8.83-4.73-10.27-10.91-1.55-6.61-1.33-13.16,2.53-19.11,4.6-7.1,12.23-7.11,16.84,0C426,141.42,426.68,146.66,426.49,152.06Z"/><path class="cls-5" d="M490.16,139.79c.08-10-1.08-19.25-5-28-2.76-6.2-6-12.77-13.66-12.76s-11,6.66-13.64,12.84c-5,11.75-5.9,24.13-4.53,36.69,1,8.72,2.87,17.22,8,24.59,6.15,8.76,14.32,8.76,20.42,0a38.4,38.4,0,0,0,3.63-6.82A65.15,65.15,0,0,0,490.16,139.79ZM474,154.19c-4.23,4.57-9.71,4.62-13.92.07-3.72-4-4.62-9.08-5.07-14.26.4-5.25,1.35-10.3,5-14.35,4.18-4.67,9.58-4.66,13.88-.1C480.31,132.4,480.37,147.27,474,154.19Z"/><text class="cls-8" transform="translate(339.63 926.79)">404</text><text class="cls-9" transform="translate(267.13 801.4)">ER<tspan class="cls-10" x="114.12" y="0">R</tspan><tspan x="175.41" y="0">OR</tspan></text><text class="cls-11" transform="translate(200.7 1017)">The page is <tspan class="cls-12" x="324.24" y="0">L</tspan><tspan class="cls-13" x="356.58" y="0">o</tspan><tspan class="cls-14" x="389.88" y="0">s</tspan><tspan class="cls-13" x="418.38" y="0">t</tspan></text></svg>