<?xml version="1.0" encoding="utf-8"?>
<!-- Generator: Adobe Illustrator 17.0.0, SVG Export Plug-In . SVG Version: 6.00 Build 0)  -->
<!DOCTYPE svg PUBLIC "-//W3C//DTD SVG 1.1//EN" "http://www.w3.org/Graphics/SVG/1.1/DTD/svg11.dtd">
<svg version="1.1" id="_x35_0c81bbe-f144-4d6a-ab3d-5352da295715"
	 xmlns="http://www.w3.org/2000/svg" xmlns:xlink="http://www.w3.org/1999/xlink" x="0px" y="0px" width="975.26px"
	 height="825.18px" viewBox="0 0 975.26 825.18" enable-background="new 0 0 975.26 825.18" xml:space="preserve">
<path opacity="0.1" fill="#1B5E79" enable-background="new    " d="M951.293,592.146c-6.41,15.45-14.82,30.26-26.59,41.62
	c-14.34,13.84-32.15,21.39-51.22,25c-5.622,1.048-11.297,1.782-17,2.2c-15.07,1.16-30.5,0.39-45.3-1.22
	c-36.251-3.958-72.003-11.607-106.7-22.83c-5.7-1.84-11.367-3.777-17-5.81c-8.5-3.047-16.923-6.317-25.27-9.81
	c-34-14.21-69.15-32.33-105.32-26.71c-17.53,2.73-34,11-51.57,13.46c-12.331,1.62-24.862,0.729-36.84-2.62
	c-5.799-1.551-11.48-3.513-17-5.87c-12.442-5.41-24.281-12.113-35.32-20c-26.5-18.52-50.28-41.48-78.18-57.52
	c-30.76-17.69-64.81-26.1-99.5-32.37c-5.647-1.02-11.313-1.993-17-2.92c-16.05-2.65-32.14-5.1-48-8
	c-15.28-2.82-30.83-6.27-44.13-14.75c-9.49-6.05-17.47-14.43-24.79-23.26c-13.503-16.362-25.086-34.219-34.52-53.22
	c-0.5-1-0.99-2-1.47-3c-14.69-30.14-24.57-63-30.63-97c-0.18-1-0.35-2-0.52-3c-5.7-33.33-7.78-67.79-7.15-102l0.06-3
	c0.39-16.89,1.44-33.71,3-50.29c1.12-11.66,2.62-23.76,8.66-33.56s15.88-16.09,25.68-21.33c43.34-23.07,84.85-29.49,131.43-18.31
	c7.48,1.79,14.93,3.72,22.38,5.72c5.67,1.52,11.34,3.09,17,4.67c39.13,10.91,78.16,22.52,118.61,26c3.907,0.34,7.817,0.6,11.73,0.78
	c7.74,0.36,15.48,0.44,23.22,0.24c19.938-0.56,39.806-2.605,59.44-6.12c5.68-0.98,11.347-2.067,17-3.26
	c24.4-5.09,48.58-11.88,72.37-19.39c4.86-1.533,9.713-3.093,14.56-4.68c10.92-3.57,21.84-7.21,32.78-10.75
	c32.66-10.59,65.48-20.26,99.29-24.16c2.893-0.327,5.787-0.617,8.68-0.87c2.77-0.24,5.55-0.43,8.32-0.57
	c52.45-2.8,105.5,9.85,152,35.74c5.773,3.207,11.44,6.62,17,10.24c7.713,5.02,15.19,10.42,22.43,16.2
	c14.84,11.85,28.73,25.34,39.31,41.55c10.31,15.79,17,33.52,20.85,52.16c0.21,1,0.41,2,0.59,3c5.65,30.09,3.89,62.36-2.45,92.51
	c-0.67,3.16-1.38,6.33-2.12,9.49c-0.23,1-0.47,2-0.71,3c-6.84,28.51-15.58,56.94-13.3,86.09c0.29,3.67,0.75,7.31,1.35,10.91
	c0.17,1,0.34,2,0.53,3c4.46,23.78,14.6,46.34,20.68,69.89C972.056,502.167,968.778,549.401,951.293,592.146z"/>
<title>work time</title>
<g>
	<path fill="#EBEAEF" d="M674.278,690.726c-0.194,1.47,0.663,2.602,1.269,3.794c3.478,6.837,5.561,14.114,6.798,21.646
		c1.248,7.596,0.869,15.14-1.28,22.528c-1.288,4.427-3.417,8.457-6.354,12.087c-6.353,7.851-14.889,11.728-24.463,13.834
		c-3.972,0.874-7.971,1.237-12.049,1.382c-12.203,0.432-23.714-2.393-34.99-6.699c-7.975-3.045-15.96-6.079-24.038-8.832
		c-5.216-1.777-10.642-2.811-16.219-2.723c-7.917,0.125-14.833,2.97-20.917,7.862c-1.514,1.218-3.302,2.1-4.784,3.716
		c1.508,0.793,2.761-0.136,3.941-0.352c4.772-0.875,9.568-0.379,14.347-0.586c3.809-0.165,7.418,0.745,11.056,1.654
		c5.116,1.279,9.318,4.153,13.091,7.63c8.337,7.684,17.793,13.73,27.739,19.006c7.278,3.861,14.945,6.906,23.091,8.437
		c10.007,1.88,19.705,1.436,28.455-4.612c2.859-1.976,5.262-4.494,7.405-7.155c6.372-7.911,13.313-15.224,21.82-20.83
		c6.664-4.391,13.983-7.216,21.933-8.607c6.734-1.179,13.489-1.486,20.217-1.021c5.566,0.385,11.156,0.772,16.716,1.563
		c6.037,0.859,12.173,1.447,18.233-0.414c5.202-1.597,9.787-4.092,13.404-8.224c0.772-0.882,1.395-1.82,1.475-3.03
		c1.519-0.201,2.745,0.114,3.183,1.813c-1.495,0.143-1.922,1.559-2.668,2.453c-5.155,6.176-11.844,9.015-19.676,10.245
		c-5.101,0.801-9.899-0.371-14.838-0.616c-3.123-0.155-6.211-0.605-9.31-0.874c-5.728-0.497-11.455-0.73-17.17-0.477
		c-10.444,0.464-20.356,2.953-29.229,8.771c-3.662,2.402-7.032,5.15-10.315,8.064c-4.927,4.374-9.031,9.43-13.24,14.444
		c-5.201,6.195-11.91,9.94-19.957,11.32c-10.896,1.867-21.096-0.775-31.023-4.782c-12.646-5.105-24.114-12.23-34.748-20.776
		c-2.354-1.892-4.394-4.112-6.888-5.864c-4.65-3.266-9.753-5.092-15.353-5.558c-2.276-0.19-4.483-0.874-6.817-0.669
		c-9.128,0.802-18.17,1.801-26.67,5.698c-7.881,3.613-16.158,5.871-24.817,6.983c-5.229,0.671-10.458,0.802-15.598,0.37
		c-8.818-0.741-17.43-2.702-25.531-6.579c-7.695-3.684-14.707-8.249-20.583-14.489c-3.815-4.052-6.84-8.685-9.548-13.48
		c-5.439-9.629-10.352-19.543-15.421-29.373c-3.676-7.127-7.83-14.03-13.053-20.148c-4.775-5.593-10.283-10.42-17.291-13.101
		c-3.59-1.373-7.286-2.335-11.218-2.433c-6.903-0.171-13.674,0.791-20.464,1.79c-2.355,0.347-4.772,0.54-7.126,0.635
		c-3.85,0.156-7.704,0.512-11.504,0.885c-9.704,0.952-19.405,0.576-29.086,0.393c-11.162-0.211-22.236-1.906-32.476-6.597
		c-9.014-4.129-15.759-10.676-19.019-20.448c-1.395-4.182-2.162-8.448-2.852-12.74c-1.138-7.084-4.128-13.318-8.457-18.91
		c-4.742-6.124-10.48-11.257-16.503-16.115c-4.287-3.457-8.529-6.98-12.755-10.516c-2.674-2.238-5.088-4.66-7.117-7.385
		c-4.756-6.388-6.024-12.67-1.285-20.621c1.496-2.51,3.405-4.718,5.288-6.94c1.409-0.152,2.016,0.493,1.876,1.884
		c-4.216,4.333-7.748,8.987-7.531,15.49c0.141,4.238,2.4,7.507,5.033,10.453c4.171,4.666,9.112,8.514,13.977,12.438
		c3.153,2.543,6.371,5.008,9.378,7.749c2.229,2.033,4.58,3.943,6.642,6.15c5.523,5.911,10.21,12.363,12.648,20.21
		c0.989,3.185,1.304,6.501,1.865,9.769c1.368,7.963,4.086,15.282,10.138,20.966c4.578,4.3,10.114,6.941,16.015,8.824
		c4.852,1.548,9.874,2.57,14.906,3.13c3.281,0.365,6.584,0.888,9.935,0.841c7.415-0.105,14.834,0.047,22.25-0.06
		c5.188-0.074,10.352-0.669,15.524-1.079c3-0.238,5.988-0.644,8.996-0.836c4.132-0.264,8.242-0.897,12.354-1.435
		c7.017-0.917,13.869-0.499,20.593,1.944c8.68,3.153,14.889,9.367,20.592,16.232c6.031,7.26,10.569,15.465,14.739,23.877
		c4.171,8.412,8.54,16.718,13.126,24.909c2.445,4.367,5.226,8.631,8.732,12.131c6.514,6.503,13.961,11.771,22.683,15.149
		c6.551,2.537,13.285,4.406,20.217,4.905c5.672,0.409,11.417,0.454,17.162-0.324c7.183-0.973,14.003-2.967,20.714-5.583
		c6.278-2.448,11.898-6.004,17.25-9.993c4.785-3.566,9.681-6.807,15.533-8.407c6.716-1.836,13.339-1.374,20.017,0.237
		c9.149,2.206,17.783,5.853,26.533,9.19c7.391,2.818,14.851,5.575,22.686,6.728c10.679,1.572,21.406,1.566,31.806-1.859
		c7.683-2.53,14.42-6.666,18.949-13.594c2.809-4.296,4.644-9.066,5.531-14.175c0.465-2.679,0.631-5.356,0.632-8.071
		c0.003-10.969-3.065-21.122-8.012-30.797c-0.342-0.669-0.7-1.282-1.424-1.589C671.458,690.722,672.704,690.439,674.278,690.726z"/>
	<path fill="#BFBDCC" d="M667.94,666.844c3.761-2.356,7.762-1.922,10.559,1.146c2.674,2.934,2.802,7.041,0.316,10.493
		c-0.239,0.332-0.531,0.625-0.799,0.935c-0.206,0.211-0.426,0.406-0.652,0.594l0.001-0.004c-6.365,2.568-12.462-1.736-12.107-8.487
		C665.368,669.449,666.342,667.999,667.94,666.844z"/>
	<path fill="#BFBDCC" d="M775.837,731.42c-5.602-5.84-0.959-13.085,4.485-14.133c2.349-0.453,4.19,0.657,6.099,1.661
		c3.522,3.093,2.281,9.058-0.2,11.579C783.28,733.514,779.988,733.828,775.837,731.42z"/>
	<path fill="#D5D4DE" d="M210.916,559.035c-0.405-0.848-1.035-1.471-1.876-1.884c-0.411-0.717-0.335-1.287,0.299-1.909
		c3.696-3.628,7.361-7.288,11.015-10.959c0.718-0.721,1.513-1.05,2.513-0.885c1.187,0.476,2.161,1.166,2.501,2.492
		c0.002,0.789-0.434,1.345-0.96,1.868c-3.662,3.639-7.319,7.282-10.973,10.928c-0.523,0.522-1.065,0.984-1.866,0.947
		c-0.222-0.193-0.422-0.41-0.649-0.598L210.916,559.035z"/>
	<path fill="#D5D4DE" d="M783.356,744.592c-1.061-0.605-2.122-1.209-3.183-1.813c-1.028-0.846-0.331-1.675,0.023-2.51
		c0.811-1.91,2.072-3.618,2.544-5.679c0.323-0.977,1.168-1.395,1.968-1.887c4.317-2.658,5.274-4.946,4.14-9.856
		c-0.161-0.699-0.494-1.399,0.154-2.032c0.514-0.355,0.983-0.826,1.55-1.042c1.633-0.621,3.207,0.373,3.427,2.115
		c0.093,0.733-0.042,1.441-0.364,2.129c-2.96,6.325-5.907,12.656-8.85,18.989C784.451,743.684,784.113,744.318,783.356,744.592z"/>
	<path fill="#D5D4DE" d="M674.278,690.726c-1.089,0.555-2.316,0.872-3.175,1.827c-1.228-0.01-1.45-1.054-1.843-1.862
		c-2.964-6.093-5.909-12.196-8.838-18.305c-0.265-0.553-0.464-1.165-0.549-1.77c-0.14-0.987,0.129-1.82,1.061-2.41
		c1.291-0.817,2.349-0.563,3.315,0.51c1.015,0.613,0.819,1.526,0.682,2.482c-0.746,5.202,0.418,7.48,4.961,9.809
		c0.464,0.238,0.934,0.456,1.236,0.91c0.572,2.415,2.059,4.416,3.005,6.66C674.414,689.249,675.259,689.944,674.278,690.726z"/>
	<path fill="#E6E6EC" d="M789.002,720.815c0.654,2.231,1.765,4.328,0.978,6.847c-0.819,2.621-2.145,4.628-4.756,5.681
		c-0.856,0.345-1.657,0.827-2.483,1.247c-0.583-0.795-1.464-0.521-2.245-0.653c-1.827-0.308-3.553-0.85-4.658-2.516
		c1.871,0.27,3.46,1.374,5.642,0.852c5.558-1.329,7.441-6.904,5.718-11.318c-0.261-0.668-0.517-1.338-0.776-2.007
		C787.518,719.243,787.977,720.42,789.002,720.815z"/>
	<path fill="#E7E6EC" d="M671.126,681.917c-5.611-0.938-8.424-5.307-6.952-10.804c0.213-0.797,0.544-1.582,0.073-2.397
		c1.62,0.143,2.117-1.929,3.693-1.872c-0.603,1.179-1.574,2.148-1.814,3.536c-1.07,6.183,4.155,11.103,10.316,9.693
		c0.297-0.068,0.615-0.045,0.923-0.065C675.654,681.849,673.444,682.061,671.126,681.917z"/>
	<path fill="#C1BFCE" d="M225.367,545.89c-1.063-0.601-1.906-1.423-2.501-2.492c1.419-1.339,2.84-2.677,4.256-4.019
		c0.782-0.742,1.642-1.478,2.654-0.506c1.012,0.972,0.753,2.078-0.163,2.989C228.23,543.236,226.785,544.55,225.367,545.89z"/>
	<path fill="#FFB2CA" d="M269.171,594.718c-0.167,0.232-0.333,0.463-0.499,0.695C268.69,595.074,268.855,594.841,269.171,594.718z"
		/>
	<path fill="#EBEAEF" d="M210.918,559.036c0.216,0.199,0.433,0.399,0.649,0.598C211.351,559.434,211.135,559.235,210.918,559.036z"
		/>
	<path fill="#E7E6EC" d="M677.364,680.012c0.217-0.198,0.435-0.396,0.652-0.594C677.799,679.616,677.582,679.814,677.364,680.012z"
		/>
</g>
<g>
	<path fill="#141251" d="M708.547,538.334c-0.772,0.882-0.931,2.023-1.3,3.076c-4.338,12.382-16.361,20.136-29.117,18.78
		c-13.15-1.398-23.219-11.326-24.823-24.54c-0.936-7.707,1.265-14.538,5.971-20.626c0.38-0.492,0.827-0.932,1.227-1.408
		c0.319-0.379,0.616-0.777,1.014-1.283c-2.728-4.117-6.774-5.185-11.343-5.049c-1.493,0.045-2.025,0.7-1.882,2.4
		c0.527,6.27-0.95,12.117-4.352,17.441c-7.207,11.282-21.896,15.761-34.233,10.444c-12.669-5.46-19.43-19.078-16.015-32.278
		c0.344-1.328,0.744-2.641,1.118-3.961c0.201-3.161,0.408-6.32,2.672-8.858c2.371-4.396,1.112-9.345-3.137-12.406
		c-0.759-0.547-2.179-0.673-2.027-1.857c0.171-1.327,0.693-2.674,1.347-3.854c0.555-1.003,1.593-0.331,2.362-0.077
		c4.259,1.408,8.506,2.855,12.746,4.319c8.128,2.806,16.248,5.632,24.371,8.45c5.348,2.006,9.522,5.372,12.172,10.504
		c1.088,2.624,2.863,3.639,5.809,3.119c2.294-0.405,4.64,0.208,6.868,0.993c1.811,0.833,3.857,1.393,5.201,2.892
		c2.467,2.753,5.124,2.603,8.049,1.009c5.115-2.072,10.264-2.095,15.445-0.275c8.132,2.711,16.267,5.416,24.396,8.136
		c4.007,1.34,8.021,2.662,11.995,4.095c1.011,0.365,2.569,0.384,2.054,2.376c-0.661,2.556-1.363,3.445-3.267,3.384
		c-5.466-0.175-8.439,1.712-10.759,6.827C711.013,533.085,710.926,536.067,708.547,538.334z"/>
	<path fill="#AA3291" d="M644.413,497.755c-2.592-4.792-6.785-7.901-11.266-10.707c6.497,1.681,12.726,4.186,19.09,6.275
		c11.093,3.641,22.126,7.468,33.178,11.234c0.455,0.155,0.85,0.484,1.274,0.732c-5.289-0.802-10.5-0.67-15.558,1.301
		c-3.959-1.033-7.795-2.42-11.56-4.01C654.577,500.792,649.365,499.681,644.413,497.755z"/>
	<path fill="#AB3493" d="M708.547,538.334c0.496-2.858,1.642-5.513,2.565-8.232c1.576,3.92,3.95,7.419,5.831,11.177
		c1.497,2.99,1.374,4.541-0.5,5.418c-1.738,0.813-2.925,0.079-4.511-2.64C710.815,542.143,710.006,540.045,708.547,538.334z"/>
	<path fill="#BD5FA9" d="M597.485,492.472c-0.279,3.139-1.632,5.954-2.673,8.86c-0.21-0.604,0.01-1.666-1.251-1.12
		c-1.811,0.784-3.617,1.581-5.455,2.298c-2.233,0.871-3.65,0.448-4.375-1.201c-0.67-1.526-0.161-2.893,1.854-3.813
		C589.5,495.707,593.288,493.596,597.485,492.472z"/>
	<path fill="#C9D7F4" d="M600.101,504.403c3.116-11.279,19.244-19.789,32.657-10.823c4.591,3.068,7.864,7.139,8.961,12.706
		c-0.113,2.199-1.861,2.456-3.414,2.631c-11.966,1.349-23.916,2.854-35.902,4.009c-3.294,0.317-3.915-0.493-3.349-3.855
		C599.317,507.504,599.202,505.833,600.101,504.403z"/>
	<path fill="#C9D7F4" d="M659.044,530.604c0.759-10.445,8.709-18.621,19.281-20.022c11.001-1.458,21.075,6.288,23.206,14.645
		c0.807,3.265-1.77,3.08-3.592,3.307c-9.648,1.2-19.315,2.238-28.976,3.332c-2.105,0.238-4.195,0.641-6.319,0.664
		C661.113,532.545,659.584,532.477,659.044,530.604z"/>
	<path fill="#C9D7F4" d="M701.535,539.719c-2.262,7.882-9.581,13.838-18.417,14.766c-11.571,1.216-20.771-6.793-22.736-14.434
		c0.398-2.49,2.544-2.036,4.089-2.23c10.866-1.36,21.754-2.532,32.635-3.76C703.007,533.396,703.324,533.899,701.535,539.719z"/>
	<path fill="#C9D7F4" d="M641.067,519.695c-3.078,11.455-20.761,20.808-34.852,9.015c-2.582-2.161-4.737-4.731-5.705-8.084
		c0.347-2.653,2.585-2.394,4.299-2.578c10.663-1.145,21.299-2.536,31.972-3.589C642.475,513.897,642.605,514.064,641.067,519.695z"
		/>
	<path fill="#BBCDF2" d="M641.067,519.695c-0.102-1.464,0.719-2.901,0.063-4.659c-5.079,0.569-10.199,1.15-15.32,1.713
		c-6.864,0.755-13.733,1.466-20.591,2.268c-1.655,0.194-3.552-0.125-4.708,1.609c-2.479-5.348-3.008-10.746-0.41-16.223
		c-0.256,1.719-0.564,3.432-0.757,5.158c-0.251,2.248,0.184,2.717,2.381,2.479c4.791-0.519,9.573-1.121,14.362-1.657
		c6.999-0.783,14.005-1.502,20.999-2.33c1.651-0.196,3.574,0.082,4.633-1.767C643.313,510.844,643.112,515.314,641.067,519.695z"/>
	<path fill="#BBCDF2" d="M701.535,539.719c0.233-1.462,0.466-2.924,0.722-4.531c-2.541-0.726-4.829-0.118-7.087,0.133
		c-10.46,1.159-20.91,2.413-31.37,3.575c-1.26,0.14-2.474,0.187-3.418,1.157c-1.434-3.009-1.931-6.151-1.338-9.448
		c1.113,0.972,2.331,1.099,3.813,0.918c9.235-1.128,18.486-2.135,27.731-3.178c2.835-0.32,5.668-0.658,8.507-0.925
		c1.405-0.132,2.386-0.613,2.436-2.192C703.455,530.057,703.771,534.887,701.535,539.719z"/>
	<path fill="#F6F4F8" d="M644.413,497.755c0.512-1.328,1.431-0.554,2.117-0.322c4.394,1.483,8.767,3.03,13.147,4.556
		c-0.256,1.343-0.985,0.819-1.681,0.426c-3.246-0.634-6.498-1.409-9.809-0.537c-1.248,0.328-1.764-0.154-2.202-1.227
		C645.571,499.64,644.945,498.716,644.413,497.755z"/>
	<path fill="#F6F3F7" d="M657.995,502.415c0.605,0.034,1.206,0.053,1.681-0.426c3.299,1.05,6.602,2.086,9.892,3.16
		c0.709,0.232,1.372,0.603,1.562,1.441c-3.171,1.957-5.898,2.002-8.492-1.231C661.554,504.007,659.57,503.374,657.995,502.415z"/>
</g>
<g>
	<path fill="#141251" d="M917.74,187.521c-0.129,3.331-1.586,5.925-4.192,8.019c-8.219,6.606-16.38,13.285-24.572,19.925
		c-20.601,16.699-41.208,33.392-61.81,50.09c-1.46,1.183-2.86,2.494-4.713,3.016c-4.358,1.225-8.042,0.111-10.925-3.41
		c-3.307-4.039-6.581-8.106-9.869-12.161c-31.497-38.847-62.995-77.693-94.485-116.546c-1.375-1.696-2.928-3.292-3.65-5.422
		c-1.367-4.034-0.081-8.171,3.578-11.16c7.924-6.473,15.89-12.895,23.837-19.339c20.68-16.769,41.358-33.538,62.037-50.307
		c0.568-0.46,1.137-0.918,1.712-1.369c5.15-4.036,10.646-3.438,14.84,1.655c2.721,3.305,5.391,6.651,8.087,9.976
		c32.089,39.577,64.176,79.155,96.274,118.724C915.882,181.665,917.862,184.092,917.74,187.521z"/>
	<path fill="#6552A8" d="M752.805,182.229c-3.96-4.828-7.932-9.647-11.877-14.487c-6.914-8.483-13.811-16.979-20.714-25.471
		c-1.841-2.265-3.647-4.56-5.532-6.788c-0.885-1.047-0.734-1.689,0.329-2.539c5.294-4.229,10.523-8.538,15.78-12.812
		c8.572-6.97,17.143-13.942,25.724-20.9c6.882-5.58,13.785-11.132,20.667-16.713c8.581-6.959,17.18-13.896,25.709-20.919
		c4.229-3.482,4.25-3.627,7.719,0.571c5.909,7.151,11.693,14.403,17.541,21.604c6.9,8.495,13.875,16.931,20.701,25.485
		c6.043,7.574,12.384,14.91,18.164,22.694c-2.341,1.81-5.136,2.705-7.798,3.865c-25.342,11.041-50.692,22.063-76.044,33.08
		C773.036,173.306,762.848,177.605,752.805,182.229z"/>
	<path fill="#7160AF" d="M883.273,152.032c4.27,4.549,7.927,9.606,11.889,14.41c1.518,1.84,3.198,3.56,4.424,5.631
		c0.144,1.99-1.55,2.306-2.786,2.852c-12.974,5.734-26.01,11.328-39.006,17.013c-22.169,9.697-44.393,19.267-66.579,28.925
		c-1.834,0.799-3.586,2.293-5.862,1.456c-3.505-3.69-6.487-7.817-9.745-11.714c-2.26-2.703-4.354-5.546-6.522-8.326
		c-0.051-1.677,1.384-1.922,2.446-2.377c21.188-9.082,42.284-18.377,63.43-27.556c14.927-6.479,29.824-13.026,44.775-19.451
		C880.863,152.41,881.911,151.563,883.273,152.032z"/>
	<path fill="#6552A8" d="M785.354,222.318c3.502-1.051,6.759-2.708,10.106-4.136c7.567-3.228,15.107-6.519,22.647-9.809
		c7.256-3.166,14.495-6.37,21.749-9.543c6.966-3.047,13.936-6.083,20.912-9.107c5.541-2.402,11.098-4.769,16.641-7.168
		c6.212-2.689,12.427-5.37,18.613-8.117c1.299-0.577,2.833-0.896,3.565-2.366c0.594,0.289,0.96,0.808,1.253,1.357
		c0.629,1.179,2.428,1.867,2.145,3.259c-0.26,1.279-1.891,1.841-2.926,2.683c-12.612,10.256-25.282,20.441-37.914,30.672
		c-10.447,8.462-20.859,16.966-31.295,25.441c-6.471,5.255-12.949,10.504-19.445,15.728c-1.729,1.39-1.782,1.336-3.172-0.375
		c-7.094-8.736-14.196-17.466-21.281-26.21C786.364,223.903,785.884,223.09,785.354,222.318z"/>
	<path fill="#7160AF" d="M752.805,182.229c0.042-1.005,0.756-1.416,1.551-1.755c8.234-3.507,16.485-6.975,24.696-10.533
		c7.356-3.187,14.653-6.511,22.006-9.706c10.405-4.521,20.848-8.955,31.254-13.474c7.258-3.152,14.482-6.383,21.72-9.579
		c3.715-1.64,7.423-3.297,11.153-4.901c0.554-0.238,1.217-0.224,1.829-0.327c3.161,3.357,5.967,7.002,8.718,10.694
		c0.699,2.34-1.419,2.507-2.615,3.057c-5.311,2.442-10.704,4.703-16.06,7.048c-28.69,12.561-57.458,24.945-86.155,37.493
		c-2.849,1.246-5.572,2.888-8.734,3.342C758.692,190.096,755.755,186.158,752.805,182.229z"/>
	<path fill="#6552A8" d="M762.17,193.589c1.748-1.781,4.209-2.181,6.347-3.168c5.952-2.747,12.01-5.267,18.023-7.884
		c6.968-3.033,13.929-6.084,20.902-9.106c5.539-2.401,11.095-4.762,16.636-7.156c9.172-3.963,18.348-7.919,27.506-11.916
		c5.822-2.541,11.612-5.153,17.419-7.729c1.713-0.76,3.442-1.484,5.146-2.263c0.749-0.342,1.575-0.671,1.586-1.72
		c2.738,2.947,5.254,6.073,7.54,9.383c-7.889,3.514-15.765,7.058-23.671,10.534c-7.617,3.349-15.26,6.637-22.9,9.933
		c-7.066,3.048-14.15,6.055-21.214,9.111c-5.443,2.355-10.859,4.77-16.297,7.136c-7.535,3.277-15.121,6.439-22.595,9.85
		c-2.527,1.153-5.388,1.687-7.51,3.682C766.545,199.569,764.172,196.727,762.17,193.589z"/>
	<path fill="#1B5ED7" d="M869.407,222.752c0.032,3.244-2.833,6.175-6.107,6.246c-3.239,0.07-6.258-2.778-6.368-6.007
		c-0.123-3.6,2.518-6.375,6.12-6.43C866.721,216.504,869.37,219.085,869.407,222.752z"/>
	<path fill="#037796" d="M757.858,90.39c0.021,1.322-0.8,2.135-1.968,2.05c-1.109-0.081-1.7-0.715-1.749-1.815
		c-0.051-1.155,0.803-1.972,1.979-1.903C757.242,88.787,757.796,89.431,757.858,90.39z"/>
	<path fill="#141353" d="M863.327,226.77c-2.374,0.071-4.381-1.697-4.425-3.898c-0.042-2.134,1.996-4.309,4.084-4.356
		c2.166-0.049,4.373,1.926,4.471,4.002C867.558,224.649,865.563,226.703,863.327,226.77z"/>
</g>
<g>
	<path fill="#027E9B" d="M462.908,356.21c3.54,9.474,7.112,18.937,10.615,28.425c18.133,49.116,36.218,98.249,54.397,147.348
		c3.629,9.802,2.8,18.814-3.83,27.075c-2.608,3.25-5.893,5.732-9.789,7.072c-9.557,3.286-19.201,6.318-28.81,9.452
		c-0.87-0.726-0.961-1.817-1.28-2.791c-2.566-7.821-5.24-15.605-7.805-23.426c-0.449-1.367-1.147-2.717-0.664-4.239
		c1.467-2.268,4.143-2.106,6.239-3.11c2.426-0.727,4.898-1.358,6.884-3.069c0.188-0.181,0.389-0.349,0.587-0.517
		c0.178-0.178,0.365-0.35,0.544-0.528c0.076-0.099,0.162-0.191,0.238-0.291c0.13-0.218,0.267-0.43,0.393-0.653
		c0.109-0.244,0.229-0.477,0.346-0.715c0.167-0.39,0.331-0.779,0.491-1.173c1.22-2.983,0.845-5.918-0.187-8.854
		c-5.009-14.254-10.215-28.437-15.404-42.626c-1.602-4.381-2.631-9.043-5.747-12.743c-0.345-0.39-0.692-0.784-1.12-1.088
		c-0.199-0.123-0.393-0.261-0.585-0.394c-0.291-0.173-0.59-0.337-0.9-0.479c-0.212-0.081-0.418-0.173-0.627-0.26
		c-0.449-0.149-0.915-0.192-1.382-0.24c-0.387-0.039-0.765-0.113-1.143-0.199c-2.127-0.578-4.073,0.171-6.034,0.809
		c-0.549,0.175-1.095,0.355-1.634,0.564c-0.278,0.121-0.562,0.218-0.85,0.31c-1.496,0.341-2.891,1.295-4.535,0.758
		c-0.991-0.585-1.259-1.625-1.591-2.602c-4.37-12.823-8.502-25.724-12.667-38.615c-0.225-0.695-0.407-1.402-0.36-2.142
		c0.203-1.633,1.572-2.266,2.682-3.117c0.188-0.159,0.391-0.308,0.587-0.456c0.172-0.154,0.357-0.301,0.534-0.449
		c0.08-0.076,0.169-0.148,0.249-0.224c0.151-0.154,0.314-0.3,0.472-0.446c0.073-0.075,0.154-0.146,0.227-0.221
		c0.139-0.154,0.287-0.302,0.428-0.453c-0.007-0.005,0.196-0.24,0.189-0.245c0.103-0.18,0.211-0.357,0.309-0.54
		c0.082-0.194,0.182-0.377,0.287-0.557c0.088-0.19,0.187-0.374,0.284-0.558c0.079-0.193,0.177-0.376,0.283-0.555
		c0.149-0.271,0.297-0.542,0.425-0.825c0.076-0.196,0.169-0.384,0.266-0.57c0.14-0.29,0.277-0.581,0.402-0.881
		c0.072-0.22,0.153-0.432,0.227-0.65c0.135-0.482,0.196-0.975,0.282-1.467c0.208-0.989,0.43-1.971,0.621-2.963
		c2.733-10.341,5.887-20.562,8.5-30.932c2.19-7.288,3.993-14.686,6.213-21.963c0.07-0.294,0.17-0.583,0.282-0.863
		c0.291-0.665,0.486-1.366,0.675-2.069c0.095-0.276,0.246-0.52,0.437-0.74C462.289,355.199,462.587,355.727,462.908,356.21z"/>
	<path fill="#027E9B" d="M401.073,603.31c-5.889,2.4-12.041,4.028-18.025,6.151c-2.357,0.836-4.748,1.573-7.123,2.359
		c-15.004,4.97-29.284-2.448-33.706-17.626c-11.171-38.34-22.289-76.695-33.422-115.046c-6.162-21.229-12.312-42.462-18.459-63.696
		c-0.201-0.694-0.312-1.415-0.465-2.123c0.407-1.699,0.498-1.77,2.122-0.589c3.629,2.638,7.147,5.426,10.654,8.219
		c12.157,9.683,24.546,19.071,36.632,28.843c3.659,2.958,7.966,3.926,12.453,4.502c1.034,0.704,1.299,1.854,1.658,2.929
		c4.291,12.837,8.597,25.669,12.856,38.516c0.325,0.981,0.736,1.961,0.493,3.04c-1.566,1.453-3.791,1.28-5.556,2.252
		c-7.773,2.639-10.566,7.394-8.271,15.162c4.962,16.8,9.839,33.626,15,50.366c0.215,0.697,0.456,1.388,0.729,2.065
		c2.083,5.161,6.95,7.723,12.387,6.498c1.527-0.344,2.982-0.946,4.482-1.38c0.29-0.111,0.588-0.2,0.885-0.288
		c0.287-0.113,0.581-0.206,0.876-0.294c1.195-0.195,2.244-1.14,3.566-0.715c0.792,0.608,1.055,1.522,1.35,2.402
		c2.836,8.458,5.661,16.921,8.442,25.397C400.956,601.245,401.204,602.251,401.073,603.31z"/>
	<path fill="#1C8BA5" d="M325.226,331.953c2.38-0.712,4.756-1.437,7.142-2.128c0.579-0.168,0.81-0.592,1.017-1.073
		c2.027-1.094,4.279-1.607,6.395-2.48c7.731-2.101,15.206-4.983,22.837-7.382c1.461-0.459,2.898-1.27,4.518-0.582
		c1.136,0.761,1.433,2.014,1.842,3.189c8.817,25.351,17.484,50.753,26.248,76.122c4.092,11.845,8.13,23.71,12.261,35.542
		c0.373,1.07,0.986,2.106,0.578,3.317c-0.615,1.102-1.735,1.438-2.813,1.808c-12.688,4.367-25.518,8.302-38.251,12.535
		c-0.788,0.262-1.595,0.492-2.446,0.305c-1.162-0.561-1.483-1.7-1.849-2.78c-1.876-5.538-3.747-11.078-5.54-16.644
		c-1.042-3.234-0.672-3.865,2.622-5.083c0.979-0.362,1.974-0.681,2.965-1.01c1.473-0.49,1.947-1.406,1.428-2.899
		c-0.476-1.37-1.232-2.161-2.794-1.738c-1.31,0.354-2.659,0.602-3.927,1.071c-2.49,0.921-3.701-0.143-4.356-2.464
		c-0.68-2.41-1.388-4.814-2.185-7.191c-4.346-12.97-8.666-25.948-12.975-38.93c-1.596-4.81-1.334-5.269,3.549-6.993
		c1.799-0.635,4.189-0.837,3.067-3.874c-0.484-1.309-1.212-1.838-2.61-1.465c-1.614,0.432-3.209,0.929-4.821,1.367
		c-1.402,0.381-2.499,0.096-3.016-1.385c-3.164-9.069-6.218-18.175-9.091-27.341C324.833,333.165,324.862,332.523,325.226,331.953z"
		/>
	<path fill="#1C8BA5" d="M351.478,454.62c-5.328,0.4-9.665-1.775-13.687-5.036c-5.242-4.251-10.618-8.336-15.923-12.509
		c-6.448-5.072-12.878-10.167-19.323-15.242c-3.917-3.084-7.831-6.172-11.786-9.205c-0.735-0.564-0.736,0.273-0.885,0.701
		c-0.555-1.629-1.581-2.868-3.04-3.782c-3.688-2.31-5.438-5.713-6.247-9.963c-2.98-15.645-6.17-31.25-9.274-46.871
		c-0.514-2.587-0.509-2.619,2.11-3.486c12.549-4.154,25.104-8.289,37.655-12.436c0.492-0.163,0.967-0.38,1.45-0.572
		c1.599,0.036,1.606,1.458,1.942,2.425c2.872,8.276,5.25,16.715,8.154,24.982c0.822,2.341,0.177,3.83-2.26,4.516
		c-1.002,0.282-1.972,0.682-2.969,0.986c-1.631,0.497-2.517,1.319-1.892,3.211c0.588,1.784,1.672,2.331,3.344,1.633
		c7.46-3.114,7.007-0.476,8.907,5.065c4.77,13.911,8.977,28.006,13.755,41.915c1.843,5.366,1.576,5.792-3.768,7.673
		c-1.488,0.524-3.509,0.61-2.642,3.217c0.626,1.884,1.691,2.55,3.534,1.793c7.361-3.024,6.881-0.52,8.728,4.88
		c1.451,4.242,2.948,8.473,4.078,12.818C351.72,452.418,352.288,453.515,351.478,454.62z"/>
	<path fill="#141251" d="M476.112,544.929c0.691,3.914,2.316,7.542,3.499,11.304c1.686,5.361,3.517,10.676,5.283,16.011
		c0.359,1.083,0.852,2.143,0.596,3.337c-3.903,1.348-7.773,2.797-11.779,3.828c-2.154,0.024-1.905-1.921-2.254-3.077
		c-2.795-9.264-6.076-18.365-9.083-27.557c-8.105-24.678-16.108-49.39-24.452-73.989c-4.336-14.726-9.635-29.137-14.348-43.738
		c-1.948-5.805-3.574-11.715-5.584-17.504c-1.337-3.85-1.409-3.898-5.316-2.625c-0.987,0.322-1.959,0.691-2.973,0.925
		c-0.44,0.096-0.883,0.111-1.324,0.031c-0.275-0.074-0.526-0.205-0.75-0.382c-0.344-0.428-0.505-0.946-0.692-1.45
		c-0.099-0.233-0.176-0.476-0.247-0.719c-0.134-0.476-0.265-0.955-0.448-1.42c-0.103-0.233-0.183-0.473-0.255-0.716
		c-0.145-0.504-0.295-1.006-0.327-1.535c0.053-0.438,0.293-0.764,0.619-1.04c0.34-0.27,0.713-0.483,1.11-0.659
		c0.405-0.189,0.829-0.325,1.25-0.474c5.411-1.96,5.664-1.139,3.52-7.396c-4.696-13.703-8.931-27.557-13.552-41.285
		c-1.632-4.848-1.625-4.851-6.542-3.252c-0.694,0.225-1.384,0.462-2.089,0.652c-0.446,0.106-0.893,0.112-1.337-0.008
		c-0.578-0.219-0.871-0.707-1.144-1.211c-0.119-0.233-0.213-0.481-0.288-0.731c-0.137-0.474-0.264-0.956-0.443-1.421
		c-0.092-0.224-0.161-0.456-0.223-0.69c-0.126-0.473-0.287-0.936-0.437-1.406c-0.059-0.258-0.075-0.515-0.052-0.78
		c0.034-0.132,0.072-0.26,0.107-0.393c0.068-0.122,0.138-0.238,0.206-0.36c0.27-0.342,0.604-0.6,0.994-0.791
		c0.398-0.198,0.817-0.34,1.235-0.488c6.17-2.316,6.123-0.721,3.764-7.912c-2.214-6.748-4.568-13.451-6.559-20.271
		c-0.321-1.1-0.784-2.17-0.577-3.359c0.07-1.479-0.969-2.699-0.985-4.427c3.647-1.212,7.365-2.441,11.078-3.686
		c0.898-0.301,1.36,0.099,1.638,0.896c0.341,0.977,0.691,1.949,1.038,2.924c1.271,0.797,1.51,2.188,1.934,3.449
		c2.384,7.086,4.725,14.186,7.076,21.282c1.515,4.574,1.516,4.527,6.067,3.125c1.774-0.547,3.765-1.91,5.177,0.679
		c0.603,1.506,1.107,3.037,1.131,4.683c-0.785,2.319-3.062,2.263-4.829,2.937c-3.278,1.25-3.422,1.398-2.34,4.745
		c4.81,14.871,10.068,29.594,14.643,44.543c1.058,3.456,1.362,3.529,4.633,2.501c5.832-1.834,5.865-1.815,7.548,4.328
		c0.063,0.462,0.025,0.914-0.137,1.352c-0.198,0.416-0.55,0.655-0.958,0.826c-0.366,0.158-0.747,0.286-1.126,0.413
		c-0.353,0.128-0.717,0.223-1.08,0.318c-0.345,0.115-0.691,0.233-1.033,0.361c-0.346,0.132-0.7,0.237-1.053,0.35
		c-0.355,0.14-0.705,0.286-1.054,0.445c-0.237,0.128-0.477,0.242-0.716,0.36c-1.299,1.1-0.521,2.321-0.15,3.459
		c1.586,4.867,3.209,9.723,4.831,14.579c0.395,1.182,0.925,2.349,0.616,3.654c0.079,0.514,0.088,1.051,0.248,1.538
		c4.519,13.756,9.052,27.507,13.594,41.256c0.126,0.382,0.374,0.725,0.565,1.086c0.898,0.663,1.232,1.66,1.555,2.656
		c7.234,22.359,14.674,44.65,22.095,66.947c0.297,0.892,0.514,1.808,0.715,2.725c0.134,0.593,0.244,1.192,0.192,1.807
		C476.124,544.632,476.118,544.781,476.112,544.929z"/>
	<path fill="#141251" d="M351.478,454.62c-1.697-6.997-4.366-13.687-6.468-20.557c-0.354-1.156-0.995-1.396-2.131-0.962
		c-1.75,0.669-3.574,1.141-5.332,1.791c-1.449,0.536-2.374,0.37-2.76-1.333c-0.32-1.414-1.052-2.722-1.218-4.389
		c2.13-0.719,4.297-1.418,6.44-2.184c2.18-0.778,2.294-0.936,1.561-3.185c-2.327-7.134-4.725-14.245-7.073-21.373
		c-2.934-8.907-5.835-17.825-8.773-26.731c-0.92-2.788-0.953-2.781-3.646-1.912c-1.586,0.512-3.164,1.051-4.756,1.547
		c-0.385,0.12-0.834,0.225-1.21,0.143c-0.576-0.126-2.424-5.143-2.107-5.697c0.332-0.58,0.993-0.729,1.579-0.929
		c1.873-0.639,3.744-1.291,5.637-1.867c0.968-0.295,1.444-0.731,1.063-1.796c-3.435-9.595-5.976-19.491-9.759-28.969
		c0.068-1.472-0.936-2.7-0.963-4.313c3.661-1.233,7.363-2.466,11.053-3.734c0.897-0.308,1.358,0.013,1.624,0.845
		c0.314,0.981,0.653,1.955,0.982,2.934c3.303,9.991,6.604,19.98,10.01,30.287c2.453-0.743,4.816-1.407,7.141-2.185
		c1.283-0.429,2.138-0.413,2.595,1.125c1.663,5.604,2.034,4.243-2.776,5.932c-5.798,2.035-5.121,0.875-3.294,6.456
		c4.475,13.674,9.056,27.313,13.581,40.97c0.622,1.878,1.241,3.763,1.738,5.676c0.364,1.402,0.92,1.881,2.404,1.288
		c1.832-0.732,3.768-1.202,5.653-1.805c1.094-0.351,1.719,0.008,2.201,1.069c1.959,4.32,1.853,4.581-2.534,6.054
		c-1.563,0.525-3.762,0.475-4.462,1.897c-0.687,1.393,0.607,3.136,1.142,4.684c2.006,5.811,3.641,11.748,5.938,17.46
		c1.376,1.016,1.598,2.638,2.082,4.093c4.337,13.028,8.36,26.159,12.879,39.127c8.076,24.871,16.327,49.686,24.552,74.508
		c2.559,8.978,5.868,17.711,8.686,26.604c0.426,1.346,1.241,2.688,0.449,4.18c-3.991,1.482-8.032,2.809-12.137,3.939
		c-0.598-0.358-0.685-0.974-0.882-1.578c-3.088-9.414-6.202-18.819-9.322-28.222c-0.128-0.384-0.368-0.731-0.556-1.095
		c-1.342-0.909-1.498-2.45-1.952-3.798c-5.48-16.277-10.529-32.696-16.108-48.941c-1.826-5.316-3.592-10.653-5.323-16.002
		c-0.472-1.459-1.195-2.92-0.623-4.537c-2.019-6.206-4.025-12.417-6.061-18.617c-2.524-7.687-5.065-15.368-7.619-23.045
		C352.303,456.503,352.162,455.449,351.478,454.62z"/>
	<path fill="#027E9B" d="M413.209,599.37c-2.967-9.004-5.944-18.005-8.89-27.015c-0.384-1.176-1.013-2.304-0.906-3.609
		c0.982-1.425,2.615-1.646,4.073-2.133c16.237-5.42,32.454-10.897,48.774-16.061c2.292-0.488,4.361-1.764,6.746-1.931
		c2.473,5.838,4.084,11.972,6.17,17.943c1.129,3.233,2.077,6.53,3.159,9.78c0.352,1.059,0.436,2.26,1.375,3.064
		c-4.011,1.753-8.24,2.887-12.38,4.267c-15.32,5.105-30.675,10.108-46.019,15.141C414.624,599.042,413.91,599.188,413.209,599.37z"
		/>
	<path fill="#1B8BA5" d="M419.046,341.164c-0.703-1.333-1.19-2.732-1.295-4.247c-3.164-10.629-7.189-20.969-10.615-31.51
		c5.028-2.084,10.212-3.693,15.466-5.089c0.481-0.194,1.049-0.134,1.469-0.506c0.117-0.156,0.268-0.203,0.454-0.14
		c1.957-0.03,1.833,1.702,2.237,2.825c3.6,10.002,7.024,20.068,10.459,30.127c5.087,14.893,10.243,29.762,15.359,44.645
		c0.5,1.454,0.82,3.04,2.213,4.017c-2.729,10.504-5.671,20.948-8.77,31.348c-2.183,0.855-2.476-0.998-2.933-2.234
		c-1.52-4.112-2.952-8.261-4.353-12.414c-5.674-16.823-11.695-33.527-17.226-50.397
		C420.793,345.402,419.712,343.365,419.046,341.164z"/>
	<path fill="#238FA8" d="M454.792,381.286c-0.581,0.225-1.208,0.563-1.622-0.212c-0.341-0.638-0.641-1.309-0.876-1.993
		c-2.797-8.166-5.565-16.341-8.367-24.505c-4.725-13.771-9.41-27.555-14.241-41.289c-1.345-3.825-2.666-7.658-4.006-11.485
		c-0.263-0.752-0.279-1.691-1.157-2.129c2.398-1.186,4.936-1.943,7.55-2.466c0.436-0.246,0.991-0.161,1.394-0.499
		c0.138-0.148,0.302-0.19,0.494-0.126c0.586-0.459,1.497,0.085,1.996-0.645l-0.024,0.021c1.901-0.796,2.708,0.392,3.254,1.874
		c0.758,2.058,1.618,4.079,2.313,6.16c5.596,16.74,11.527,33.366,17.143,50.099c0.555,1.654,0.865,3.473,2.411,4.626
		C458.968,366.241,456.88,373.764,454.792,381.286z"/>
	<path fill="#1286A1" d="M409.01,411.448c2.138-0.762,4.287-1.495,6.41-2.298c1.265-0.478,1.934-0.047,2.328,1.18
		c2.18,6.779,4.587,13.487,6.424,20.375c0.146,0.432,0.077,0.889-0.324,1.058c-3.355,1.419-6.595,3.256-10.43,3.027
		c-1.071-1.121-1.14-2.655-1.604-4.016c-12.635-37.106-25.508-74.129-38.275-111.19c-0.238-0.691-0.498-1.373-0.563-2.107
		c-0.027-0.471,0.09-0.902,0.383-1.273c0.186-0.205,0.41-0.373,0.657-0.503c0.47-0.201,0.974-0.324,1.444-0.535
		c0.33-0.163,0.669-0.296,1.05-0.218c0.599-0.03,1.199-0.06,1.798-0.09c1.672,1.318,2.029,3.354,2.68,5.174
		c2.481,6.946,4.556,14.033,7.202,20.925c0.467,1.217,1.16,2.522,0.15,3.84c-0.362,0.056-0.724,0.112-1.085,0.168
		c-0.328,0.117-0.577,0.336-0.788,0.605l0.017-0.014c-0.168,0.114-0.236,0.242-0.205,0.383c0.033,0.148,0.074,0.222,0.123,0.222
		c0.083,0.18,0.112,0.368,0.087,0.565c0.318,0.378,0.196,0.934,0.528,1.306c0.089,0.182,0.122,0.373,0.099,0.575
		c0.318,0.378,0.196,0.934,0.528,1.306c0.088,0.182,0.121,0.373,0.099,0.574c0.323,0.389,0.199,1.008,0.677,1.317
		c0.372-0.003,0.743-0.006,1.115-0.01c2.302-0.721,2.615,1.154,3.113,2.532c1.843,5.099,3.553,10.248,5.3,15.38
		c3.429,10.07,7.051,20.075,10.329,30.196c0.471,1.453,1.292,2.939,0.126,4.456c-0.361,0.057-0.723,0.114-1.084,0.171
		c-0.305,0.089-0.531,0.3-0.769,0.492c-0.206,0.206-0.412,0.412-0.618,0.618c0.494,0.569-0.007,1.444,0.607,1.975l-0.007-0.013
		c0.537,0.522,0.022,1.397,0.634,1.894l-0.007-0.013c0.544,0.514,0,1.415,0.672,1.884l-0.037-0.043
		C408.161,411.754,408.567,411.785,409.01,411.448z"/>
	<path fill="#141251" d="M376.511,314.949c-0.244,0.191-0.488,0.382-0.731,0.572c-0.382,0.303-0.93,0.204-1.3,0.537
		c-0.2-0.022-0.391,0.008-0.574,0.091c-0.55,0.209-0.974,0.61-1.439,0.955c-0.284,0.121-0.578,0.193-0.884,0.226
		c-0.65,0.025-1.254-0.108-1.784-0.506c-0.92-0.819-1.071-1.994-1.419-3.078c-1.753-5.463-3.491-10.934-5.483-16.313
		c-1.788-4.828-5.295-6.522-10.208-5.019c-4.488,1.373-8.95,2.843-13.359,4.45c-5.193,1.893-6.815,5.328-5.101,10.623
		c1.671,5.16,3.439,10.289,5.111,15.449c0.408,1.26,1.113,2.524,0.411,3.916c-1.988,1.082-3.984,2.136-6.365,1.897
		c-2.158-6.511-4.289-13.034-6.483-19.535c-3.174-9.406,2.46-17.468,9.977-19.549c4.703-1.302,9.279-3.054,13.935-4.53
		c8.526-2.702,16.287,1.172,19.154,9.641C372.235,301.471,374.337,308.223,376.511,314.949z"/>
	<path fill="#2690A9" d="M461.056,358.718c-1.211,0.686-1.71-0.073-2.051-1.047c-0.789-2.255-1.551-4.52-2.321-6.781
		c-3.348-9.836-6.663-19.684-10.053-29.506c-2.643-7.658-5.398-15.278-8.05-22.933c-0.47-1.358-0.884-2.592-2.648-2.492
		c0.154-0.135,0.285-0.327,0.464-0.396c4.183-1.62,4.182-1.616,6.089,2.436c6.353,13.501,12.56,27.074,19.141,40.463
		c2.369,4.819,3.172,9.4,1.125,14.392c-0.197,0.482-0.326,0.991-0.486,1.488c-0.31,0.363-0.052,0.982-0.565,1.253
		c0.002,0.205-0.002,0.411-0.011,0.616c-0.593,0.5-0.052,1.373-0.62,1.881C461.074,358.301,461.069,358.509,461.056,358.718z"/>
	<path fill="#1487A2" d="M407.136,305.407c1.099,0.038,1.235,0.915,1.496,1.698c0.849,2.55,1.689,5.104,2.566,7.644
		c1.922,5.568,3.844,11.137,5.809,16.69c0.632,1.787,0.994,3.583,0.744,5.477c-0.586-0.663-0.945-1.543-2.223-0.983
		c-1.61,0.706-3.338,1.147-5.026,1.668c-2.404,0.742-2.547,0.703-3.351-1.691c-2.515-7.49-4.99-14.993-7.471-22.494
		c-0.586-1.773-1.134-3.559-1.697-5.337C401.097,307.403,403.968,305.897,407.136,305.407z"/>
	<path fill="#1286A1" d="M388.341,344.798c-0.119-2-1.015-3.778-1.646-5.626c-2.773-8.112-5.586-16.211-8.385-24.314
		c2.303-0.828,4.605-1.656,6.908-2.484c0.836,0.867,0.937,2.048,1.288,3.111c2.708,8.185,5.391,16.379,8.07,24.573
		c0.81,2.476,0.795,2.485-1.785,3.322C391.31,343.861,389.824,344.326,388.341,344.798z"/>
	<path fill="#238FA8" d="M461.702,355.594c0.002-0.502,0.091-0.964,0.565-1.253c0.301,0.593,0.755,1.133,0.641,1.869
		C462.506,356.005,462.104,355.799,461.702,355.594z"/>
	<path fill="#2690A9" d="M435.958,295.938c-0.452,0.874-1.25,0.68-1.995,0.645C434.505,295.988,435.222,295.935,435.958,295.938z"/>
	<path fill="#2690A9" d="M433.469,296.708c-0.337,0.523-0.848,0.557-1.393,0.499C432.437,296.754,432.924,296.649,433.469,296.708z"
		/>
	<path fill="#238FA8" d="M424.071,299.813c-0.354,0.561-0.893,0.586-1.469,0.506C422.98,299.827,423.505,299.76,424.071,299.813z"/>
	<path fill="#1487A2" d="M419.046,341.164c1.616,0.915,1.998,2.615,2.529,4.161c3.76,10.934,7.452,21.891,11.207,32.827
		c3.687,10.736,7.429,21.453,11.126,32.185c0.381,1.105,0.59,2.283,2.114,2.297c0.187,1.126-0.561,2.063-0.631,3.137
		c-0.4,0.323-0.239,0.924-0.621,1.256c0,0.208-0.001,0.416-0.004,0.625c-0.236,0.183-0.401,0.435-0.621,0.634
		c0.001,0.207,0,0.413-0.004,0.62c-0.237,0.183-0.402,0.436-0.623,0.634c0.001,0.207-0.001,0.413-0.004,0.62
		c-0.237,0.183-0.402,0.435-0.624,0.633c0,0.208-0.002,0.415-0.007,0.623c-0.226,0.189-0.413,0.417-0.622,0.624l-0.001,0.001
		c-0.213,0.204-0.422,0.413-0.625,0.627c-0.215,0.204-0.424,0.412-0.627,0.628l0.001-0.001c-0.216,0.203-0.425,0.412-0.628,0.628
		l0.001,0c-1.394,0.797-1.999-0.328-2.363-1.207c-2.433-5.867-4.34-11.92-6.138-18.006c-0.086-0.291,0.16-0.586,0.35-0.837
		c0.144-0.084,0.297-0.104,0.458-0.061c0.295-0.082,0.511-0.296,0.76-0.454c0.373-0.058,0.745-0.116,1.118-0.174
		c0.298-0.08,0.514-0.295,0.764-0.455c0.372-0.058,0.743-0.115,1.115-0.173c0.3-0.078,0.517-0.294,0.766-0.456
		c0.357-0.058,0.714-0.115,1.071-0.173c0.563-0.264,0.629-0.665,0.32-1.168c-0.443-1.165-0.893-2.328-1.328-3.496
		c-0.754-2.023-0.756-2.04-2.91-1.359c-1.786,0.565-3.57,1.141-5.332,1.775c-1.003,0.361-1.571,0.089-1.901-0.911
		c-0.553-1.68-1.176-3.338-1.729-5.018c-4.788-14.538-9.568-29.08-14.349-43.621c-0.163-0.495-0.286-1.004-0.478-1.487
		c-0.487-1.227-0.134-1.963,1.159-2.357c1.792-0.545,3.548-1.211,5.334-1.779C417.876,342.248,418.691,342.062,419.046,341.164z"/>
	<path fill="#1D8CA5" d="M489.914,538.66c-1.841,2.586-4.623,3.29-7.521,3.763c-2.245,0.732-2.353-1.231-2.789-2.417
		c-1.579-4.299-3.072-8.633-4.545-12.968c-6.166-18.139-12.488-36.223-18.69-54.349c-0.401-1.172-0.906-2.356-0.313-3.624
		c0.207-0.004,0.414-0.006,0.62-0.006c0.335-0.379,0.936-0.22,1.259-0.622c2.243-0.829,4.441-2.129,6.899-0.64
		c0.512,0.544,0.782,1.209,1.016,1.909c6.762,20.235,13.851,40.357,20.775,60.536C487.604,533.097,488.541,535.962,489.914,538.66z"
		/>
	<path fill="#2690A9" d="M489.914,538.66c-1.886-0.46-2.038-2.207-2.522-3.598c-3.07-8.826-6.053-17.682-9.092-26.519
		c-4.186-12.174-8.401-24.338-12.588-36.511c-0.47-1.368-1.069-2.723-0.878-4.234c0.417,0.008,0.834,0.015,1.252,0.023
		c0.332,0.382,0.914,0.252,1.255,0.613h0c0.331,0.384,0.91,0.271,1.255,0.626l0,0c0.321,0.394,0.918,0.247,1.242,0.635
		c2.97,1.895,3.797,5.15,4.892,8.122c4.095,11.119,8.026,22.298,12.022,33.453c1.893,5.284,3.841,10.549,5.672,15.855
		c1.056,3.059,1.11,6.123-0.633,9.023c-0.237,0.184-0.404,0.435-0.616,0.643c-0.002,0.204-0.009,0.407-0.021,0.61
		c-0.219,0.195-0.407,0.421-0.616,0.627l-0.001,0.001c-0.207,0.211-0.439,0.397-0.623,0.63L489.914,538.66z"/>
	<path fill="#1688A3" d="M456.056,469.065c2.1,6.206,4.18,12.418,6.303,18.615c4.589,13.396,9.119,26.812,13.85,40.158
		c1.426,4.023,2.758,8.078,4.214,12.091c0.384,1.058,0.48,2.319,1.969,2.494c-1.89,1.344-4.282,1.432-6.28,2.506l0.003,0.003
		c-0.344-0.338-0.237-0.871-0.533-1.229c-2.825-8.5-5.667-16.995-8.471-25.502c-4.99-15.142-9.958-30.291-14.925-45.441
		c-0.258-0.786-0.412-1.606-0.615-2.411C453.066,469.921,454.561,469.493,456.056,469.065z"/>
	<path fill="#1487A2" d="M432.23,403.871c1.922,5.69,3.795,11.398,5.807,17.057c0.417,1.172,0.621,2.744,2.344,2.994
		c-0.709,1.306-2.135,1.708-3.215,2.548c-1.923-4.237-3.046-8.754-4.573-13.13c-0.749-2.145-1.472-4.3-2.17-6.463
		C429.709,404.668,429.729,404.662,432.23,403.871z"/>
	<path fill="#238FA8" d="M461.071,358.091c0.019-0.689-0.111-1.427,0.62-1.881C461.679,356.902,461.792,357.634,461.071,358.091z"/>
	<path fill="#1D8CA5" d="M467.341,468.434c-0.515-0.008-0.98-0.117-1.255-0.614C466.604,467.822,467.068,467.933,467.341,468.434z"
		/>
	<path fill="#1487A2" d="M444.77,417.028c0.011-0.516,0.119-0.983,0.621-1.256C445.382,416.289,445.269,416.753,444.77,417.028z"/>
	<path fill="#1D8CA5" d="M468.596,469.06c-0.518-0.008-0.985-0.12-1.255-0.626C467.858,468.445,468.323,468.559,468.596,469.06z"/>
	<path fill="#1688A3" d="M457.935,468.437c-0.273,0.504-0.741,0.614-1.259,0.622C456.951,468.558,457.417,468.446,457.935,468.437z"
		/>
	<path fill="#1D8CA5" d="M469.838,469.695c-0.514-0.017-0.978-0.131-1.242-0.635C469.111,469.073,469.575,469.188,469.838,469.695z"
		/>
	<path fill="#1487A2" d="M444.144,418.286c0.207-0.211,0.414-0.422,0.621-0.634C444.559,417.864,444.351,418.075,444.144,418.286z"
		/>
	<path fill="#1D8CA5" d="M491.174,536.791c0.205-0.214,0.411-0.428,0.616-0.643C491.585,536.363,491.379,536.577,491.174,536.791z"
		/>
	<path fill="#1D8CA5" d="M490.537,538.028c0.205-0.209,0.411-0.418,0.616-0.627C490.948,537.61,490.742,537.819,490.537,538.028z"/>
	<path fill="#1D8CA5" d="M489.913,538.659c0.208-0.21,0.416-0.42,0.623-0.63C490.328,538.239,490.12,538.449,489.913,538.659z"/>
	<path fill="#1487A2" d="M441.634,422.667c0.209-0.209,0.417-0.418,0.625-0.627C442.051,422.249,441.842,422.458,441.634,422.667z"
		/>
	<path fill="#1487A2" d="M440.38,423.922c0.209-0.209,0.418-0.418,0.628-0.628C440.799,423.504,440.59,423.713,440.38,423.922z"/>
	<path fill="#1487A2" d="M441.007,423.295c0.209-0.209,0.418-0.419,0.627-0.628C441.425,422.876,441.216,423.086,441.007,423.295z"
		/>
	<path fill="#1487A2" d="M442.261,422.039c0.207-0.208,0.415-0.416,0.622-0.624C442.675,421.623,442.468,421.831,442.261,422.039z"
		/>
	<path fill="#1487A2" d="M442.89,420.792c0.208-0.211,0.416-0.422,0.624-0.633C443.305,420.371,443.097,420.581,442.89,420.792z"/>
	<path fill="#1487A2" d="M443.517,419.54c0.208-0.211,0.415-0.423,0.623-0.634C443.933,419.117,443.725,419.328,443.517,419.54z"/>
	<path fill="#1C8BA5" d="M386.461,574.386c-2.921,0.629-5.603,2.227-8.765,1.914c-4.009-0.397-7.122-2.125-9.097-5.678
		c-1.273-2.289-1.893-4.845-2.645-7.323c-2.864-9.432-5.617-18.898-8.398-28.354c-1.961-6.668-3.953-13.329-5.837-20.019
		c-2.044-7.257,2.936-13.981,9.658-14.521c1.717,0.087,1.686,1.612,2.063,2.671c3.914,10.997,7.614,22.068,11.446,33.094
		c4.003,11.518,7.941,23.06,11.9,34.594c0.335,0.976,0.827,1.941,0.308,3.007l-0.002-0.002
		C386.879,573.973,386.653,574.162,386.461,574.386z"/>
	<path fill="#1789A3" d="M387.094,573.772c-2.705-6.336-4.57-12.966-6.816-19.462c-4.664-13.489-9.201-27.022-13.944-40.483
		c-1.35-3.831-2.638-7.684-4.019-11.503c-0.239-0.662-0.217-1.482-0.938-1.918c1.528-0.87,3.039-1.809,4.929-1.269
		c3.245,9.778,6.504,19.552,9.731,29.337c4.598,13.939,9.175,27.885,13.75,41.831c0.225,0.687,0.351,1.407,0.523,2.111
		C389.496,573.477,388.37,573.803,387.094,573.772z"/>
	<path fill="#1789A3" d="M386.461,574.386c0.21-0.205,0.42-0.411,0.631-0.616C386.881,573.975,386.671,574.18,386.461,574.386z"/>
	<path fill="#027E9B" d="M413.419,434.577c3.616-1.203,7.403-1.927,10.753-3.871c2.058,4.794,3.428,9.827,5.075,14.762
		c3.037,9.101,5.999,18.226,8.978,27.346c0.193,0.59,0.262,1.219,0.389,1.83c-1.614,2.294-4.48,1.798-6.598,2.973
		c-0.29,0.116-0.587,0.207-0.886,0.295c-0.604,0.177-1.194,0.399-1.785,0.617c-15.511,5.202-31.022,10.399-46.623,15.324
		c-1.245,0.393-2.502,1.212-3.873,0.322c-2.53-6.175-4.358-12.592-6.457-18.913c-2.692-8.107-5.228-16.266-7.831-24.403
		c9.359-3.497,19.007-6.115,28.446-9.371c4.916-1.696,9.846-3.354,14.77-5.029c0.959-1.177,2.372-1.445,3.71-1.867
		c0.395-0.129,0.796-0.236,1.207-0.305C412.981,434.268,413.223,434.366,413.419,434.577z"/>
	<path fill="#1688A3" d="M367.029,318.608c1.03-0.437,2.06-0.874,3.091-1.312c0.537-0.522,1.354-0.018,1.896-0.519
		c0.189-0.082,0.385-0.113,0.59-0.093c0.239-0.217,0.468-0.218,0.685,0.034c2.506,5.847,4.238,11.964,6.301,17.966
		c4.6,13.386,9.192,26.775,13.804,40.158c4.137,12.004,8.299,24,12.442,36.002c2.242,6.493,4.476,12.989,6.694,19.49
		c0.468,1.372,1.075,2.728,0.888,4.243c-0.208,0.003-0.415,0.004-0.623,0.004c-0.195,0.222-0.445,0.388-0.63,0.619
		c-1.463,0.419-2.927,0.838-4.39,1.258c-5.869-17.1-11.73-34.203-17.609-51.3c-4.157-12.089-8.318-24.176-12.515-36.251
		C374.14,338.797,370.573,328.707,367.029,318.608z"/>
	<path fill="#1387A2" d="M431.601,477.212c2.099-1.508,4.753-1.498,7.013-2.567c1.872,4.178,3.036,8.603,4.47,12.932
		c6.44,19.438,12.846,38.888,19.258,58.336c0.291,0.883,0.725,1.738,0.664,2.71c-1.767,1.697-4.174,1.817-6.326,2.568
		c-1.639-3.948-2.956-8.018-4.337-12.055c-6.585-19.242-13.147-38.492-19.877-57.685
		C431.988,480.087,431.315,478.741,431.601,477.212z"/>
	<path fill="#1286A1" d="M408.404,404.361c-0.008-0.833-0.044-1.641-0.328-2.459c-3.995-11.5-7.971-23.006-11.928-34.52
		c-1.522-4.43-3.008-8.872-4.457-13.326c-0.372-1.143-0.672-2.232-2.155-2.26c1.871-1.177,4.078-1.467,6.083-2.293
		c1.397-0.575,2.14,0.097,2.556,1.392c0.699,2.177,1.423,4.345,2.137,6.517c4.514,13.716,9.029,27.433,13.543,41.149
		c0.195,0.592,0.36,1.196,0.587,1.776c0.526,1.341,0.19,2.14-1.289,2.519C411.547,403.268,409.985,403.852,408.404,404.361z"/>
	<path fill="#1286A1" d="M406.54,407.617c-0.781-0.48-0.621-1.25-0.608-1.975C406.541,406.175,406.54,406.896,406.54,407.617z"/>
	<path fill="#1286A1" d="M407.167,409.498c-0.758-0.448-0.623-1.195-0.634-1.893C407.175,408.091,407.153,408.801,407.167,409.498z"
		/>
	<path fill="#1286A1" d="M407.832,411.369c-0.803-0.421-0.657-1.181-0.672-1.884C407.804,409.963,407.765,410.685,407.832,411.369z"
		/>
	<path fill="#1286A1" d="M409.01,411.448c-0.47,0.606-0.873,0.542-1.216-0.122C408.2,411.366,408.605,411.407,409.01,411.448z"/>
	<path fill="#027E9B" d="M475.582,543.703c0.451,0.291,0.533,0.742,0.533,1.229C475.655,544.645,475.522,544.216,475.582,543.703z"
		/>
	<path fill="#1286A1" d="M388.42,351.805c-0.607-0.243-0.691-0.754-0.678-1.316C388.189,350.814,388.297,351.313,388.42,351.805z"/>
	<path fill="#1487A2" d="M438.602,400.757c0.617,0.586,0.431,0.953-0.319,1.168C438.389,401.536,438.496,401.147,438.602,400.757z"
		/>
	<path fill="#1286A1" d="M387.644,349.914c-0.482-0.311-0.548-0.791-0.528-1.306C387.549,348.939,387.684,349.391,387.644,349.914z"
		/>
	<path fill="#1286A1" d="M387.017,348.033c-0.482-0.311-0.548-0.791-0.528-1.306C386.922,347.058,387.057,347.51,387.017,348.033z"
		/>
	<path fill="#1286A1" d="M406.55,405.023c0.256-0.164,0.511-0.328,0.768-0.492C407.063,404.695,406.807,404.859,406.55,405.023z"/>
	<path fill="#1487A2" d="M433.449,403.357c-0.253,0.151-0.505,0.303-0.759,0.454C432.942,403.659,433.195,403.508,433.449,403.357z"
		/>
	<path fill="#1487A2" d="M435.33,402.728c-0.254,0.152-0.507,0.304-0.762,0.455C434.821,403.031,435.075,402.879,435.33,402.728z"/>
	<path fill="#1487A2" d="M437.211,402.099c-0.255,0.152-0.509,0.304-0.765,0.456C436.7,402.403,436.956,402.251,437.211,402.099z"/>
	<path fill="#1286A1" d="M386.402,346.162c-0.231-0.11-0.301-0.271-0.17-0.453c0.052-0.073,0.166-0.102,0.252-0.152
		C386.471,345.761,386.443,345.962,386.402,346.162z"/>
	<path fill="#1286A1" d="M386.467,345.571c0.151-0.345,0.413-0.547,0.787-0.605C386.992,345.168,386.73,345.37,386.467,345.571z"/>
	<path fill="#1C8BA5" d="M431.601,477.212c1.568,3.053,2.581,6.328,3.694,9.551c3.842,11.122,7.553,22.288,11.369,33.419
		c3.173,9.256,6.428,18.484,9.635,27.729c0.367,1.057,1.021,2.098,0.381,3.279c-7.891,2.594-15.784,5.183-23.673,7.784
		c-9.866,3.253-19.729,6.515-29.594,9.773c-2.699-6.9-4.793-14.007-7.123-21.032c-5.648-17.029-11.233-34.08-16.832-51.126
		c-0.258-0.786-0.408-1.608-0.608-2.414c15.133-4.72,30.172-9.729,45.21-14.74c1.856-0.618,3.64-1.531,5.656-1.601
		c0.337-0.376,0.934-0.218,1.261-0.615C431.185,477.216,431.393,477.213,431.601,477.212z"/>
	<path fill="#1286A1" d="M374.48,316.058c0.327-0.436,0.775-0.581,1.3-0.537C375.472,316.004,374.994,316.074,374.48,316.058z"/>
	<path fill="#1286A1" d="M373.29,316.719c-0.228-0.011-0.456-0.022-0.684-0.034c0.325-0.442,0.774-0.582,1.3-0.537
		C373.701,316.338,373.496,316.529,373.29,316.719z"/>
	<path fill="#1286A1" d="M372.016,316.778c-0.493,0.68-1.21,0.543-1.896,0.519c-0.032-0.176,0.005-0.337,0.109-0.48
		C370.825,316.805,371.42,316.791,372.016,316.778z"/>
	<path fill="#1387A2" d="M430.977,477.219c-0.276,0.501-0.743,0.611-1.261,0.615C429.993,477.336,430.459,477.225,430.977,477.219z"
		/>
	<path fill="#1286A1" d="M412.166,435.2c0.21-0.206,0.42-0.413,0.63-0.619C412.587,434.787,412.377,434.994,412.166,435.2z"/>
</g>
<g>
	<path fill="#141251" d="M505.062,208.318c-14.062,14.691-28.124,29.382-42.185,44.073c-2.745,2.868-5.434,5.794-8.245,8.597
		c-3.495,3.484-7.187,3.515-10.771,0.086c-14.784-14.147-29.537-28.326-44.303-42.492c-0.782-0.75-1.518-1.563-2.374-2.217
		c-3.693-2.823-4.234-7.918-0.535-11.626c6.119-6.135,12.046-12.462,18.042-18.72c14.739-15.384,29.469-30.775,44.208-46.16
		c0.999-1.043,2.008-2.079,3.056-3.073c3.14-2.977,6.755-3.11,9.937-0.144c5.546,5.17,10.943,10.498,16.477,15.68
		c3.325,3.114,6.379,6.523,10.021,9.296c0.558-0.013,1.023,0.218,1.451,0.549c6.546,6.545,13.707,12.447,20.056,19.203
		c3.991,4.248,4.266,8.061,0.412,12.394c-4.235,4.761-9.134,8.895-13.286,13.747C506.521,208.096,505.775,208.19,505.062,208.318z"
		/>
	<path fill="#1B60DB" d="M505.062,208.318c4.898-5.078,9.872-10.087,14.67-15.258c3.578-3.856,3.432-7.265-0.347-10.968
		c-5.305-5.198-10.722-10.281-16.065-15.44c-1.461-1.411-2.832-2.916-4.244-4.377c-0.946-2.042,0.152-2.917,1.955-3.233
		c5.882-1.028,11.734-2.284,17.724-2.519c1.626,0.51,2.039,1.888,2.212,3.329c0.29,2.412,1.602,3.258,3.919,2.871
		c0.815-0.136,1.646-0.203,2.47-0.29c2.526-0.267,3.995-1.308,3.385-4.154c-0.172-0.8-0.041-1.656,0.215-2.468
		c0.55-1.485,1.876-1.723,3.178-1.945c4.825-0.82,9.674-1.487,14.495-2.326c2.262-0.394,3.759,0.095,3.886,2.683
		c1.464,9.123,2.948,18.243,4.388,27.37c1.608,10.195,3.177,20.396,4.763,30.595c0.092,0.593,0.206,1.185,0.262,1.781
		c0.38,4.06-1.146,6.117-5.168,6.768c-7.582,1.227-15.174,2.392-22.763,3.577c-5.691,0.889-11.384,1.771-17.076,2.656
		c-0.475,0.074-0.948,0.16-1.425,0.214c-5.173,0.585-6.969-0.846-7.71-6.074c-0.505-3.565-1.053-7.124-1.59-10.685
		C506.074,209.591,505.974,208.732,505.062,208.318z"/>
	<path fill="#3B76E0" d="M552.518,154.222c-0.766-1.389-1.378-2.195-3.502-1.703c-4.969,1.151-10.082,1.703-15.151,2.392
		c-1.167,0.159-2.138,0.271-2.371,1.634c-0.251-0.015-0.526-0.057-0.647-0.244c-2.667-4.135-2.633-3.922-7.468-3.212
		c-2.647,0.389-2.935,2.438-3.998,4.031c-6.223,0.97-12.439,1.985-18.673,2.879c-1.531,0.22-1.591,1.158-1.632,2.274
		c-0.369-0.073-0.688-0.198-0.687-0.657c-0.001-2.782-0.754-5.466-1.077-8.206c-0.126-1.072-0.389-2.135-0.433-3.208
		c-0.141-3.405,1.468-5.469,4.885-6.012c11.024-1.752,22.061-3.422,33.093-5.13c2.847-0.441,5.681-0.966,8.535-1.35
		c4.786-0.645,6.969,1.044,7.654,5.84C551.554,147.104,552.028,150.664,552.518,154.222z"/>
	<path fill="#FCC600" d="M468.219,166.463c12.297,0.046,22.187,9.978,22.195,22.292c0.008,12.361-10.292,22.577-22.575,22.39
		c-12.354-0.189-22.143-10.1-22.132-22.411C445.718,176.197,455.604,166.417,468.219,166.463z"/>
	<path fill="#F3BF04" d="M440.556,227.765c0.559,1.462-0.361,2.308-1.424,2.849c-0.934,0.476-1.464-0.563-2.02-1.081
		c-2.867-2.671-5.685-5.395-8.504-8.117c-0.644-0.622-1.569-1.075-0.768-2.33c0.969-1.519,1.963-1.4,3.177-0.451
		c1.351,0.324,2.563,1.083,2.747,2.426c0.327,2.395,2.059,3.174,3.854,4.016l0.024,0.016c0.228,0.227,0.469,0.44,0.726,0.634
		l0.062,0.061c0.182,0.258,0.405,0.474,0.663,0.655l0.069,0.065c0.169,0.258,0.388,0.461,0.666,0.598l0.14,0.103
		C440.071,227.495,440.262,227.684,440.556,227.765z"/>
	<path fill="#F3BF03" d="M440.558,226.056c-0.583-0.583-1.166-1.165-1.748-1.748c-0.072-0.286-0.214-0.531-0.427-0.735
		c0.072-0.208,0.073-0.416,0.002-0.624c0.228-0.14,0.299-0.337,0.216-0.59c-0.061-0.185-0.125-0.278-0.192-0.278
		c0.095-0.227,0.053-0.426-0.124-0.597c-2.141-1.213-5.473-0.362-6.395-3.688c-0.919-1.032-1.147-1.962,0.071-3.032
		c0.813-0.714,1.351-0.728,2.102-0.002c3.195,3.086,6.405,6.157,9.642,9.199c0.811,0.762,0.749,1.391-0.001,2.1
		c-0.518,0.489-0.948,1.096-1.743,1.165c-0.204-0.235-0.442-0.428-0.718-0.573l-0.148-0.106
		C441.017,226.271,440.833,226.113,440.558,226.056z"/>
	<path fill="#241E4C" d="M431.889,217.795c1.497,0.967,2.766,2.337,4.852,2.123c0.773-0.079,1.488,0.584,1.543,1.565
		c-0.839,0.427-0.394,1.784-1.473,2.032c0.27,0.519,0.538,1.041,0.806,1.563c-3.615-0.003-3.7,0.014-4.395-3.344
		c-0.299-1.447-1.685-1.923-2.207-3.098C431.307,218.356,431.598,218.075,431.889,217.795z"/>
	<path fill="#241E4C" d="M439.827,227.108c-0.394-0.008-0.607-0.217-0.666-0.598C439.383,226.709,439.605,226.909,439.827,227.108z"
		/>
	<path fill="#241E4C" d="M440.558,226.056c0.32,0.008,0.49,0.182,0.536,0.489C440.916,226.382,440.737,226.219,440.558,226.056z"/>
	<path fill="#241E4C" d="M439.092,226.445c-0.393-0.045-0.611-0.266-0.663-0.655C438.65,226.008,438.871,226.226,439.092,226.445z"
		/>
	<path fill="#241E4C" d="M438.368,225.728c-0.387-0.046-0.619-0.268-0.726-0.634C437.884,225.305,438.126,225.517,438.368,225.728z"
		/>
	<path fill="#241E4C" d="M438.383,223.573c0.143,0.245,0.285,0.49,0.427,0.735C438.668,224.063,438.525,223.818,438.383,223.573z"/>
	<path fill="#241E4C" d="M438.409,222.08c0.384,0.3,0.377,0.59-0.023,0.869C438.393,222.659,438.401,222.369,438.409,222.08z"/>
	<path fill="#241E4C" d="M440.556,227.765c-0.337-0.036-0.529-0.225-0.589-0.554C440.163,227.396,440.359,227.581,440.556,227.765z"
		/>
	<path fill="#241E4C" d="M441.242,226.651c0.39,0.003,0.616,0.211,0.718,0.574C441.721,227.033,441.482,226.842,441.242,226.651z"/>
	<path fill="#FDC601" d="M519.382,157.12c-0.134-4.367-0.134-4.361,4.221-4.996c1.419-0.207,2.827-0.491,4.25-0.669
		c2.34-0.292,2.63-0.058,3.022,2.327c0.154,0.935,0.039,1.926,0.62,2.764c-0.009,0.119-0.034,0.239-0.024,0.357
		c0.458,5.88,0.458,5.88-5.615,6.684c-5.143,0.68-5.144,0.681-5.87-4.43C519.884,158.447,519.833,157.725,519.382,157.12z"/>
	<path fill="#FAC505" d="M521.263,212.508c0.681,0.854,1.204,1.801,1.448,2.863c0.72,3.144-1.627,6.361-4.874,6.729
		c-3.276,0.37-6.172-2.112-6.338-5.418c-0.05-0.998,0.293-1.881,0.719-2.748c2.752-0.121,5.637,0.465,8.036-1.525
		C520.6,212.346,520.936,212.385,521.263,212.508z"/>
	<path fill="#A93292" d="M521.263,212.508l-0.2,0.111l-0.229-0.006c-3.12-1.734-5.898-0.153-8.731,0.9
		c-1.897-1.999-2.061-4.328-0.851-6.621c1.003-1.901,2.71-2.942,5.031-2.824c2.972,0.151,5.174,2.217,5.268,5.231
		C521.585,210.364,521.367,211.437,521.263,212.508z"/>
	<path fill="#F98DAD" d="M512.104,213.513c3.673-3.473,5.439-3.655,8.73-0.9c-2.484,2.968-5.424,2.973-8.617,1.323
		C512.099,213.815,512.061,213.675,512.104,213.513z"/>
	<path fill="#E2EFFB" d="M526.001,146.962c-1.585,0.874-2.839,0.816-4.263,0.72c-0.249-1.265,0.497-2.174,1.342-2.51
		C524.413,144.643,525.063,145.891,526.001,146.962z"/>
	<path fill="#181550" d="M460.994,179.774c2.236-2.164,4.786-4.239,8.03-5.596c1.383,2.558,2.962,4.778,4.665,7.038
		c-1.401,1.482-2.775,2.807-3.993,4.263c-1.155,1.38-2.188,1.674-3.463,0.194C464.6,183.779,462.914,181.93,460.994,179.774z"/>
	<path fill="#171450" d="M459.211,181.744c2.413,2.274,4.752,4.479,7.283,6.864c-1.624,1.768-3.168,3.408-4.664,5.091
		c-0.791,0.89-1.486,0.95-2.422,0.158c-1.381-1.167-2.971-2.043-4.634-2.745c-1.168-0.493-1.342-1.122-0.718-2.219
		C455.477,186.397,456.914,183.929,459.211,181.744z"/>
	<path fill="#171450" d="M475.064,197.257c-2.296,2.458-4.991,4.345-8.094,5.899c-1.482-1.987-2.372-4.248-4.022-5.974
		c-0.634-0.663-0.465-1.312,0.071-1.881c1.471-1.563,2.721-3.758,4.539-4.46c2.113-0.816,2.948,2.156,4.54,3.223
		C473.257,194.838,474.302,195.888,475.064,197.257z"/>
	<path fill="#161450" d="M482.293,187.063c-0.917,2.7-2.609,4.874-4.263,7.079c-0.772,1.029-1.478,1.509-2.554,0.333
		c-1.856-2.03-3.775-4.003-5.734-6.069c1.829-1.753,3.183-5.184,5.801-5.171C477.789,183.246,480.024,185.682,482.293,187.063z"/>
	<path fill="#181550" d="M483.322,201.983c-1.647-1.563-3.704-2.702-4.425-4.406c-0.882-2.085,1.937-3.151,2.74-4.912
		c0.542-1.19,1.456-2.221,1.92-3.433c0.596-1.558,1.55-1.77,3.063-1.611c1.451,0.152,1.737,0.815,1.763,2.079
		C488.439,192.501,486.763,198.707,483.322,201.983z"/>
	<path fill="#181550" d="M481.884,203.488c-3.414,3.504-7.486,5.011-11.975,5.598c-0.81,0.106-1.875,0.179-1.901-1.04
		c-0.025-1.153-1.39-2.519,0.502-3.458c2.602-1.291,4.957-2.971,7.055-4.974c0.897-0.856,1.568-0.868,2.414,0.017
		C479.207,200.914,480.505,202.132,481.884,203.488z"/>
	<path fill="#171450" d="M452.57,175.607c1.851,1.358,3.701,2.474,4.359,4.151c0.801,2.044-1.766,3.059-2.55,4.711
		c-0.613,1.29-1.589,2.42-2.114,3.737c-0.76,1.908-2.193,1.593-3.574,1.283c-1.561-0.351-1.017-1.697-0.935-2.675
		C448.106,182.65,449.603,178.954,452.57,175.607z"/>
	<path fill="#161450" d="M459.08,178.582c-1.771-1.441-3.414-2.814-4.836-4.763c3.417-3.189,7.323-5.008,11.927-5.317
		c0.875-0.059,1.784-0.039,1.802,1.162c0.014,0.982,0.992,2.19-0.412,2.902C464.435,174.149,461.779,176.394,459.08,178.582z"/>
	<path fill="#1E194E" d="M459.279,196.526c-2.073,1.937-4.061,3.795-6.182,5.777c-2.024-2.837-1.5-5.876-0.779-8.899
		c0.217-0.909,0.986-0.891,1.735-0.519C455.876,193.792,457.693,194.707,459.279,196.526z"/>
	<path fill="#1C194E" d="M481.127,173.091c-1.693,2.74-3.949,4.217-5.67,6.464c-2.201-1.609-3.334-3.743-4.334-6.234
		C474.407,171.754,477.543,171.624,481.127,173.091z"/>
	<path fill="#1B174F" d="M482.772,174.947c1.902,2.892,1.441,5.617,0.982,8.323c-0.195,1.147-0.836,1.687-2.03,1.066
		c-1.677-0.872-3.398-1.679-4.82-3.349C478.743,178.958,480.362,176.803,482.772,174.947z"/>
	<path fill="#1A174F" d="M454.84,203.898c1.707-1.818,3.309-3.534,4.923-5.237c0.804-0.849,1.506-0.499,2.059,0.288
		c1.077,1.533,3.198,3.249,2.435,4.839c-0.852,1.776-3.563,1.512-5.556,1.507C457.448,205.292,456.109,205.022,454.84,203.898z"/>
	<path fill="#443840" d="M486.248,180.391c1.379,1.206,1.414,2.806,1.857,4.206c0.252,0.796-0.053,1.404-1.021,1.352
		c-0.837-0.046-1.832-0.154-1.719-1.269C485.505,183.294,485.916,181.935,486.248,180.391z"/>
	<path fill="#2C224A" d="M475.172,169.717c-1.128,0.867-2.457,0.938-3.698,1.272c-1.279,0.344-1.378-0.516-1.489-1.376
		c-0.144-1.112,0.597-1.091,1.355-1.026C472.662,168.702,473.915,169.05,475.172,169.717z"/>
	<path fill="#342A46" d="M461.536,207.072c0.901-0.254,1.797-0.531,2.706-0.755c0.586-0.144,1.252-0.155,1.472,0.522
		c0.172,0.528,0.242,1.195,0.069,1.702c-0.238,0.7-0.972,0.559-1.496,0.348c-0.966-0.39-2.13-0.201-2.944-1.014
		C461.046,207.522,461.11,207.254,461.536,207.072z"/>
	<path fill="#392B46" d="M448.543,194.7c-0.214-0.683-0.477-1.355-0.628-2.051c-0.134-0.623-0.018-1.314,0.79-1.246
		c0.758,0.064,1.882,0.022,1.792,1.221c-0.088,1.177-0.452,2.333-0.695,3.499c-0.186,0.216-0.382,0.226-0.588,0.027l-0.001-0.002
		C448.788,195.758,448.929,195.107,448.543,194.7z"/>
	<path fill="#534C37" d="M448.543,194.7c0.53,0.34,0.719,0.839,0.67,1.447C448.657,195.819,448.487,195.312,448.543,194.7z"/>
	<path fill="#4F1F4B" d="M461.536,207.072c-0.063,0.268-0.127,0.537-0.191,0.804c-0.444-0.025-0.838-0.134-1.038-0.588
		C460.717,207.217,461.126,207.144,461.536,207.072z"/>
	<path fill="#534C37" d="M449.215,196.149c0.195-0.022,0.391-0.031,0.588-0.027c-0.05,0.182-0.065,0.498-0.157,0.522
		C449.248,196.75,449.264,196.404,449.215,196.149z"/>
	<path fill="#D4A60F" d="M436.813,223.512c-0.355,0.019-0.734,0.126-1.061,0.038c-0.622-0.167-1.004-0.6-0.922-1.302
		c0.067-0.572,0.514-0.823,0.983-0.846c0.669-0.033,1.106,0.367,1.14,1.06c0.017,0.349-0.092,0.704-0.145,1.055
		C436.809,223.518,436.813,223.512,436.813,223.512z"/>
</g>
<g>
	<path fill="#FFB2CA" d="M803.496,335.089c-0.042,1.001,0.637,1.429,1.393,1.866c8.109,4.691,16.278,9.284,24.29,14.138
		c8.802,5.332,18.301,9.573,26.143,16.424c9.009,7.869,15.327,17.445,18.624,29.025c2.139,7.511,3.12,15.156,2.232,22.855
		c-0.725,6.289-2.1,12.536-4.716,18.408c-1.442,3.237-3.135,6.327-4.926,9.383c-7,11.947-13.927,23.937-20.88,35.912
		c-1.977,3.405-3.951,6.812-5.926,10.219c-3.928-1.47-7.352-3.898-10.931-5.984c-27.008-15.746-54.09-31.362-81.106-47.093
		c-1.462-0.851-3.387-1.406-3.461-3.641c1.244-4.27,3.959-7.788,6.066-11.606c3.076-5.574,6.544-10.932,9.382-16.643
		c2.27-1.846,5.196-1.943,7.815-2.846c2.462-0.848,5.061-1.281,7.578-1.979c3.566-0.989,4.421-2.452,3.271-6.022
		c-1.187-3.687-2.049-7.453-3.023-11.192c-0.314-1.205-0.725-2.416-0.359-3.697c2.906-5.676,6.372-11.03,9.534-16.558
		c5.548-9.699,11.19-19.345,16.813-29.002C801.814,336.184,802.187,335.096,803.496,335.089z"/>
	<path fill="#FFB2CA" d="M538.396,318.157c2.732-5.753,6.21-11.082,9.404-16.572c6.552-11.261,13.012-22.576,19.673-33.771
		c3.818-6.417,8.813-11.831,14.768-16.411c11.279-8.674,24.107-12.792,38.173-12.483c9.748,0.214,19.236,2.365,27.853,7.287
		c9.049,5.169,18.044,10.432,27.059,15.658c5.319,3.084,10.63,6.183,15.955,9.256c0.533,0.308,1.143,0.481,1.718,0.716
		c0.62,1.536-0.484,2.583-1.124,3.713c-7.566,13.351-15.374,26.563-23.019,39.868c-0.725,1.261-1.603,2.452-1.932,3.909
		c-0.514,1.144-1.644,1.155-2.631,1.396c-3.745,0.915-7.476,1.879-11.21,2.837c-5.39,1.384-5.972,2.372-4.665,7.666
		c0.849,3.439,2.161,6.747,2.881,10.223c0.252,1.215,0.731,2.409,0.309,3.684c-4.876,8.391-9.842,16.729-14.575,25.202
		c-0.703,1.258-1.317,2.646-2.831,3.216c-1.48,0.262-2.6-0.584-3.757-1.263c-22.914-13.461-45.981-26.658-68.932-40.057
		c-6.207-3.624-12.332-7.398-18.678-10.79C541.224,320.58,539.348,319.958,538.396,318.157z"/>
	<path fill="#AA3191" d="M666.516,319.417c-0.992-1.189,0.194-1.931,0.651-2.729c3.928-6.856,7.934-13.667,11.88-20.513
		c4.67-8.102,9.303-16.224,13.952-24.337c4.073-6.232,8.673-12.013,14.552-16.658c13.261-10.476,28.295-15.273,45.203-14.009
		c32.053,2.395,58.524,29.012,58.526,63.619c0,9.98-2.342,19.417-6.835,28.325c-0.329,0.652-0.632,1.316-0.948,1.975
		c-6.436,11.069-12.869,22.141-19.31,33.206c-2.569,4.414-5.155,8.819-7.746,13.22c-0.307,0.521-0.474,1.186-1.181,1.373
		c-1.643-1.172-1.496-3.116-1.995-4.759c-1.06-3.49-2.171-4.181-5.699-3.49c-1.693,0.332-3.336,1.344-5.156,0.531
		c-1.223-1.652-0.084-2.983,0.679-4.272c7.425-12.533,14.548-25.241,21.997-37.759c1.171-1.969,2.235-3.995,3.366-5.984
		c13.573-24.78,3.087-54.921-22.998-65.809c-19.322-8.066-41.962-2.05-54.528,14.471c-1.01,1.328-2.047,2.637-2.997,4.01
		c-8.373,14.709-16.97,29.286-25.401,43.959c-0.805,1.402-1.358,3.128-3.237,3.606c-1.734-1.45-1.796-3.657-2.469-5.574
		c-1.041-2.967-2.01-3.532-5.159-2.986C669.966,319.127,668.343,320.229,666.516,319.417z"/>
	<path fill="#FF8FB2" d="M744.814,436.47c-0.126,1.034,0.588,1.439,1.338,1.874c8.104,4.694,16.199,9.403,24.298,14.106
		c1.44,0.836,2.89,1.654,4.329,2.493c12.859,7.493,25.712,14.999,38.578,22.482c7.914,4.603,15.849,9.171,23.773,13.757
		c0.982,0.569,2.097,0.981,2.599,2.137c-0.806,2.051-2.096,3.833-3.19,5.723c-3.077,5.32-6.153,10.641-9.26,15.944
		c-1.504,2.567-1.552,2.571-4.047,1.127c-10.007-5.79-20.007-11.592-30.008-17.392c-20.544-11.912-41.091-23.818-61.613-35.766
		c-0.8-0.466-1.816-0.548-2.423-1.348c4.185-7.797,8.883-15.3,13.215-23.013C742.93,437.656,743.351,436.423,744.814,436.47z"/>
	<path fill="#FF8FB2" d="M538.396,318.157c5.527,2.69,10.739,5.937,16.04,9.029c11.15,6.503,22.315,12.981,33.478,19.462
		c9.541,5.54,19.088,11.07,28.631,16.607c5.312,3.082,10.617,6.176,15.937,9.244c0.531,0.306,1.145,0.47,1.72,0.7
		c0.619,1.123-0.072,2.018-0.589,2.875c-3.912,6.482-7.415,13.201-11.424,19.626c-0.606,0.971-1.171,1.971-2.295,2.453
		c-12.262-7.106-24.522-14.215-36.785-21.318c-18.485-10.708-36.972-21.412-55.457-32.12c-3.712-2.15-3.7-2.15-1.497-5.938
		c3.877-6.667,7.742-13.341,11.612-20.012c0.22-0.182,0.431-0.373,0.636-0.572L538.396,318.157z"/>
	<path fill="#FF8FB2" d="M716.096,453.928c-4.329-2.484-8.669-4.949-12.986-7.454c-20.706-12.013-41.405-24.039-62.11-36.054
		c-2.511-1.457-5.137-2.719-7.492-4.44c0.031-1.074,0.467-2.005,1.015-2.898c4.117-6.717,7.82-13.675,11.909-20.408
		c0.517-0.851,0.83-1.968,2.129-2.015c25.773,15.242,51.749,30.134,77.675,45.114c1.522,0.879,3.203,1.559,4.351,2.997
		c0.297,1.137-0.366,2.002-0.847,2.909c-3.51,6.631-7.645,12.906-11.164,19.533C717.99,452.318,717.323,453.389,716.096,453.928z"/>
	<path fill="#AA3191" d="M648.593,380.848c-4.059,6.908-8.1,13.826-12.192,20.715c-0.897,1.511-1.552,3.193-2.893,4.417
		c-4.537-2.608-9.076-5.217-13.614-7.827c4.544-7.853,9.089-15.704,13.627-23.56c0.258-0.447,0.455-0.928,0.681-1.393
		c3.774-6.421,7.554-12.838,11.319-19.264c1.465-2.5,2.88-5.03,4.355-7.525c0.355-0.6,0.626-1.341,1.464-1.492
		c1.741,1.25,1.544,3.323,2.095,5.058c1.012,3.189,1.993,3.803,5.281,3.22c1.804-0.32,3.535-1.436,5.473-0.604
		c0.948,1.129,0.317,2.174-0.24,3.154c-4.514,7.945-9.167,15.809-13.755,23.712C649.825,380.097,649.356,380.65,648.593,380.848z"/>
	<path fill="#AA3191" d="M716.096,453.928c4.767-8.349,9.534-16.698,14.301-25.048c-0.398-1.275,0.405-2.205,0.966-3.174
		c4.437-7.676,8.939-15.314,13.303-23.032c0.611-1.08,1.173-2.267,2.687-2.325c1.66,1.27,1.429,3.31,1.989,5.015
		c1.139,3.475,2.37,4.208,5.976,3.479c1.574-0.318,3.092-1.258,4.791-0.567c0.864,1.216-0.328,1.968-0.771,2.749
		c-4.466,7.863-9.025,15.672-13.549,23.503c-0.362,0.626-0.65,1.295-0.974,1.943c-4.013,5.932-7.141,12.388-10.928,18.456
		c-0.932,1.494-1.675,3.105-2.59,4.611c-0.514,0.847-0.812,1.992-2.11,2.069C724.824,459.047,720.46,456.488,716.096,453.928z"/>
	<path fill="#FFC2D5" d="M760.108,408.276c-1.996,0.545-3.974,1.171-5.992,1.616c-2.663,0.589-4.171-0.255-5.013-2.857
		c-0.667-2.06-1.299-4.146-1.534-6.318c-1.054-0.801-1.503-1.943-1.818-3.171c-1.005-3.92-2.053-7.829-2.97-11.77
		c-0.991-4.26,0.168-6.326,4.29-7.516c4.086-1.18,8.24-2.116,12.359-3.179c1.144-0.295,2.247-0.227,3.365,0.046
		c1.886-0.523,3.756-1.113,5.661-1.552c2.694-0.62,4.333,0.364,5.126,3.044c0.614,2.074,1.124,4.179,1.68,6.271
		c1.329,4.922,2.376,9.915,3.98,14.77c1.266,3.834,0.169,5.54-3.776,6.573C770.344,405.573,765.226,406.927,760.108,408.276z"/>
	<path fill="#FFC2D5" d="M663.824,352.579c-1.889,0.52-3.763,1.102-5.67,1.546c-2.944,0.685-4.433-0.238-5.27-3.217
		c-0.557-1.985-1.032-3.992-1.545-5.989c-1.357-5.009-2.755-10.008-4.057-15.032c-1.034-3.99-0.089-5.616,3.846-6.635
		c5.117-1.325,10.257-2.561,15.387-3.835c1.891-0.521,3.769-1.104,5.678-1.549c2.851-0.665,4.414,0.196,5.22,2.898
		c0.619,2.073,1.092,4.19,1.63,6.287c0.961,0.735,1.44,1.755,1.735,2.893c1.072,4.143,2.201,8.273,3.129,12.449
		c0.868,3.908-0.228,5.713-4.047,6.756c-3.925,1.073-7.889,2-11.757,3.281C666.706,352.897,665.271,353.142,663.824,352.579z"/>
	<path fill="#FFB2CA" d="M663.824,352.579c5.61-1.48,11.232-2.914,16.823-4.462c2.496-0.691,3.313-2.248,2.603-5.102
		c-1.328-5.339-2.503-10.72-4.206-15.961c1.16-0.342,1.409-1.449,1.914-2.32c8.646-14.94,17.279-29.887,25.923-44.827
		c0.097-0.168,0.304-0.273,0.46-0.407c3.129,1.362,5.855,3.43,8.826,5.069c0.542,0.299,1.004,0.746,0.816,1.494
		c-4.619,4.3-7.963,9.605-11.434,14.786c-1.313,1.96-0.533,4.123,1.327,5.079c2.064,1.061,4.093,0.497,5.249-1.766
		c2.182-4.273,3.882-8.772,5.889-13.129c0.561-1.218,0.931-2.582,2.316-3.214c3.091,0.472,5.681,1.823,7.606,4.338
		c0.247,1.549-0.826,2.508-1.644,3.557c-2.63,3.371-5.078,6.876-7.586,10.336c-0.68,0.938-1.27,1.915-1.466,3.077
		c-0.289,1.716,0.147,3.139,1.824,3.906c1.568,0.717,3.056,0.522,4.326-0.711c0.844-0.82,1.254-1.905,1.726-2.951
		c2.266-5.022,4.332-10.133,6.694-15.115c2.83,0.26,4.912,2.164,7.193,3.49c15.67,9.115,31.331,18.246,47.061,27.258
		c1.167,0.669,2.419,1.258,3.137,2.502c-5.619,9.727-11.236,19.456-16.859,29.181c-3.02,5.224-6.057,10.438-9.072,15.665
		c-0.491,0.852-1.426,1.661-0.475,2.773c-5.039,1.251-10.084,2.475-15.114,3.762c-4.217,1.079-5.177,2.634-4.114,6.756
		c1.297,5.034,2.367,10.129,4.003,15.073c-1.638,0.298-1.816,1.877-2.457,2.962c-4.949,8.375-9.819,16.796-14.714,25.203
		c-3.366-1.411-6.444-3.359-9.585-5.184c-13.149-7.638-26.279-15.306-39.431-22.939c-10.626-6.167-21.267-12.306-31.92-18.426
		c-0.649-0.373-0.894-0.806-0.869-1.485c4.877-8.502,9.765-16.997,14.612-25.516C663.669,354.516,664.811,353.758,663.824,352.579z"
		/>
	<path fill="#151251" d="M727.849,292.351c1.272,0.689,2.545,1.378,3.817,2.067c0.482,0.68,0.347,1.331,0.026,2.055
		c-2.152,4.857-4.234,9.745-6.413,14.589c-1.232,2.74-2.954,3.73-5.343,3.298c-2.987-0.541-4.588-3.2-3.582-6.071
		c0.27-0.77,0.725-1.502,1.214-2.163C720.977,301.521,724.418,296.94,727.849,292.351z"/>
	<path fill="#151351" d="M716.916,285.929c1.098,0.704,2.197,1.408,3.295,2.111c-2.379,5.432-4.713,10.885-7.156,16.289
		c-1.152,2.548-2.854,3.449-5.155,3.045c-3.06-0.538-4.696-3.476-3.531-6.377c0.192-0.478,0.452-0.945,0.759-1.358
		c3.163-4.263,6.359-8.502,9.5-12.781C715.244,286.02,715.812,285.405,716.916,285.929z"/>
</g>
<g>
	<path fill="#D9D7E0" d="M661.783,151.743c-2.704,1.435-3.417,4.778-5.973,6.307c-2.302,1.377-4.022,3.323-5.754,5.286
		c-3.289,1.093-6.473,2.551-9.979,2.916c-9.991,0.873-18.281-2.529-24.979-9.928c-1.849-1.959-3.622-4.171-4.021-6.772
		c-0.467-3.04-1.378,0.453-1.817-0.315c0.443-3.783,0.029-7.551-0.066-11.333c-0.24-9.651,3.632-17.451,11.47-23.204
		c0.947-0.695,1.859-1.439,2.787-2.16c2.759-2.357,5.863-3.851,9.572-3.837c10.463-1.06,19.38,1.909,26.288,10.104
		c2.308,2.846,4.138,5.944,4.94,9.572c0.061,4,0.232,8.003,0.133,12c-0.045,1.805,0.379,3.159,1.862,4.164
		C664.183,146.587,663.637,149.57,661.783,151.743z"/>
	<path fill="#08819D" d="M615.402,155.318c4.354,4.564,9.343,8.015,15.654,9.366c3.076,0.658,6.143,0.534,9.229,0.498
		c1.671,4.387-1.33,7.274-3.362,10.472c-0.229,0.729-0.354,1.513-1.038,2.007c-0.559,0.503-0.458,1.293-0.821,1.882l0.036-0.053
		c-1.204,1.667-2.649,1.576-4.211,0.57c-6.056-3.901-11.908-8.096-17.738-12.322c-1.255-0.909-2.114-2.042-1.821-3.725
		C611.333,160.477,611.572,157.056,615.402,155.318z"/>
	<path fill="#1086A1" d="M611.693,164.077c0.065,1.998,1.867,2.641,3.08,3.515c5.497,3.961,11.186,7.656,16.69,11.608
		c1.329,0.954,2.37,0.883,3.637,0.288c-1.159,3.432-1.656,7.177-4.617,9.756c-1.289,0.946-2.232-0.021-3.118-0.677
		c-5.653-4.183-11.546-8.024-17.212-12.185c-1.417-1.041-3.003-2.066-2.014-4.271c0.414-2.809,2.009-5.203,2.776-7.888
		C611.116,163.869,611.375,163.82,611.693,164.077z"/>
	<path fill="#1E8DA7" d="M608.139,172.112c0.13,0.886,0.279,1.794,1.07,2.345c7.085,4.939,14.181,9.86,21.274,14.787
		c-1.679,1.562-3.489,1.055-5.306,0.329c-5.053-2.018-10.124-3.992-15.148-6.079c-4.476-1.859-5.23-3.718-3.45-8.279
		C606.996,174.146,607.174,172.92,608.139,172.112z"/>
	<path fill="#1185A1" d="M637.671,98.295c0.201-1.652,0.859-3.122,1.799-4.477c0.757-1.415,1.921-1.312,2.997-0.594
		c6.507,4.34,13.142,8.507,19.058,13.669c0.916,0.8,1.417,1.877,1.52,3.112c-0.042,1.728,0.21,3.572-1.77,4.544
		c-7.757-5.216-15.057-11.103-23.132-15.861C637.983,98.559,637.827,98.427,637.671,98.295z"/>
	<path fill="#1D8BA5" d="M662.685,109.974c-1.401-2.544-3.775-4.054-6.054-5.653c-4.797-3.367-9.633-6.679-14.394-10.095
		c-0.941-0.675-1.73-1.025-2.767-0.408c-0.087-1.059,0.453-1.883,1.011-2.7c0.395-0.505,0.211-1.269,0.763-1.704l0.011-0.028
		c0.415-0.202,0.894-0.316,1.278-0.096c7.487,4.288,14.389,9.425,21.192,14.697c0.665,0.515,1.142,1.38,0.708,2.368
		c-0.382,1.212-0.763,2.425-1.145,3.637C663.088,109.986,662.886,109.98,662.685,109.974z"/>
	<path fill="#2790A9" d="M664.434,106.355c-1.38-2.665-4.15-3.749-6.376-5.377c-5.49-4.016-11.188-7.747-16.803-11.593
		c-0.045-0.731,0.107-1.384,0.737-1.846c1.256-1.587,2.678-1.611,4.235-0.459c5.815,4.301,11.74,8.447,17.653,12.611
		c1.402,0.987,2.276,2.341,1.53,4.197C665.368,104.822,665.217,105.714,664.434,106.355z"/>
	<path fill="#3497AE" d="M665.411,103.887c-0.149-1.792-1.252-2.859-2.684-3.787c-5.9-3.826-11.644-7.885-17.15-12.256
		c-1.318-1.046-2.334-0.879-3.585-0.305c0.052-1.02,0.573-1.65,1.567-1.887c0.7-0.249,1.506-0.176,2.112-0.705
		c0.303,0.01,0.606,0.02,0.909,0.03c5.866,2.901,10.904,7.089,16.4,10.566c2.303,1.457,4.534,3.069,3.255,6.402
		C666.225,102.705,666.056,103.397,665.411,103.887z"/>
	<path fill="#9493AC" d="M636.923,175.653c0.59-3.661,3.311-6.638,3.362-10.472c2.641-0.742,5.292-1.456,7.919-2.244
		c0.747-0.224,1.378-0.411,1.852,0.399c-1.159,1.535-2.483,2.974-3.443,4.625C644.37,171.822,641.453,174.724,636.923,175.653z"/>
	<path fill="#9693AC" d="M633.327,109.587c-3.505,0.273-6.579,1.985-9.876,2.954c2.004-2.881,4.136-5.683,5.974-8.666
		c1.717-2.789,3.981-4.187,7.255-3.894c0.332,0.293,0.524,0.662,0.602,1.096C636.491,104.156,635.829,107.3,633.327,109.587z"/>
	<path fill="#9593AB" d="M611.693,164.077c-0.253,0.081-0.512,0.131-0.778,0.148c-2.863-2.391-3.165-5.515-2.385-8.848
		c0.476-2.033,0.617-4.078,0.729-6.14c0.423-0.73,0.845-1.46,1.35-2.334c1.555,2.925,2.819,5.877,4.792,8.415
		C613.304,157.872,612.541,160.993,611.693,164.077z"/>
	<path fill="#9493AB" d="M662.685,109.974c0.203-0.047,0.405-0.043,0.605,0.016c3.32,3.725,2.408,8.095,1.723,12.34
		c-0.325,2.015-0.558,4.027-0.761,6.05c-1.729-2.887-3.457-5.773-5.185-8.659c-0.629-2.187-0.022-3.95,1.815-5.292
		C661.982,113.146,662.269,111.534,662.685,109.974z"/>
	<path fill="#429DB3" d="M666.235,101.945c0.127-2.983-1.937-4.308-4.103-5.714c-4.78-3.103-9.478-6.334-14.172-9.567
		c-0.575-0.396-0.926-1.117-1.38-1.687c3.851,0.711,7.314,2.428,10.771,4.16c3.549,2.415,7.945,3.616,10.563,7.367
		c-0.001,0.299-0.003,0.598-0.004,0.896c-0.512,0.589-0.408,1.387-0.7,2.051C667.158,100.389,667.008,101.289,666.235,101.945z"/>
	<path fill="#9996AD" d="M661.783,151.743c-0.331-2.331,1.354-4.036,1.913-6.096c0.346-1.274,1.593-0.968,2.551-1.103
		c2.359,0.599,3.284,1.851,1.993,4.207c-0.352,0.642-0.557,1.373-0.77,2.081c-0.579,1.927-1.627,2.734-3.611,1.684
		C663.212,152.174,662.478,151.997,661.783,151.743z"/>
	<path fill="#52A5B9" d="M667.914,96.503c-3.792-2.067-7.454-4.321-10.563-7.366c2.797,0.472,5.258,1.866,7.839,2.912
		C667.104,92.826,668.376,94.183,667.914,96.503z"/>
	<path fill="#1185A1" d="M636.861,100.931c-0.06-0.317-0.121-0.634-0.181-0.951c0.331-0.562,0.661-1.124,0.991-1.685
		c0,0,0.104,0.071,0.104,0.071C638.39,99.548,638.643,100.602,636.861,100.931z"/>
	<path fill="#52A5B9" d="M667.21,99.451c-0.127-0.807-0.067-1.55,0.7-2.051C668.072,98.219,667.853,98.907,667.21,99.451z"/>
	<path fill="#1086A1" d="M635.064,179.542c-0.087-0.784,0.06-1.467,0.821-1.882C635.902,178.414,635.766,179.102,635.064,179.542z"
		/>
	<path fill="#2790A9" d="M641.244,89.414c-0.003,0.681-0.134,1.304-0.763,1.704C640.406,90.402,640.664,89.836,641.244,89.414z"/>
	<path fill="#429DB3" d="M645.672,84.947c-0.515,0.798-1.286,0.832-2.112,0.705C644.098,84.923,644.835,84.786,645.672,84.947z"/>
	<path fill="#F3F3F5" d="M636.692,160.722c-11.398,1.577-23.915-11.313-23.407-23.687c0.495-12.051,10.288-23.759,24.013-23.513
		c13.19,0.236,23.312,10.362,23.514,24.027C660.988,149.482,650.012,161.806,636.692,160.722z"/>
	<path fill="#0A829E" d="M636.861,100.931c0.936-0.631,0.765-1.655,0.914-2.566c0.817-0.572,1.488-0.534,2.376,0.091
		c6.511,4.591,13.077,9.104,19.622,13.648c0.801,0.556,1.02,1.415,1.109,2.324c-0.605,1.765-1.21,3.529-1.814,5.293
		c-4.295-4.095-8.799-7.783-14.776-9.291c-3.643-0.919-7.302-0.677-10.964-0.843C634.264,106.603,635.337,103.675,636.861,100.931z"
		/>
	<path fill="#221E5A" d="M635.057,140.183c-1.317,1.475-3.068,3.476-4.87,5.429c-0.495,0.537-1.229,1.063-1.922,0.457
		c-0.929-0.813-0.289-1.598,0.349-2.25c1.659-1.693,3.273-3.44,5.039-5.016c1.434-1.281,1.656-2.55,0.935-4.318
		c-1.452-3.559-2.72-7.193-4.051-10.8c-0.307-0.831-0.641-1.665-0.802-2.528c-0.066-0.353,0.188-0.952,0.487-1.146
		c0.53-0.345,1.229-0.216,1.502,0.4c0.775,1.751,1.479,3.536,2.166,5.324c0.901,2.346,1.803,4.694,2.616,7.071
		c0.426,1.246,0.657,2.072,2.406,1.336c1.205-0.508,2.123,0.714,1.07,1.724c-1.442,1.383-1.672,2.612-0.776,4.286
		c0.344,0.642,0.52,1.472-0.327,1.932c-1.161,0.631-1.526-0.371-1.971-1.102C636.687,140.622,636.544,140.21,635.057,140.183z"/>
	<path fill="#64608A" d="M645.458,117.831c-0.536,1.578-0.76,3.315-2.573,4.926c-0.131-2.536,0.506-4.209,1.951-5.624
		C645.089,117.324,645.297,117.557,645.458,117.831z"/>
	<path fill="#5C608A" d="M639.286,153.847c1.562,1.552,1.179,3.367,0.838,5.188C639.005,157.447,639.084,155.675,639.286,153.847z"
		/>
	<path fill="#5D5B86" d="M631.178,153.507c-0.554,1.449-1.107,2.899-1.837,4.808c-0.509-2.736-0.509-2.736,1.213-5.56
		C630.896,152.895,631.104,153.146,631.178,153.507z"/>
	<path fill="#6D5783" d="M655.56,145.34c-1.257-0.521-2.862-0.41-3.709-2.169c1.925-0.409,3.247,0.555,4.587,1.453
		C656.25,144.992,655.958,145.231,655.56,145.34z"/>
	<path fill="#867A9D" d="M633.934,118.943c-0.243-0.653-0.609-1.29-0.692-1.963c-0.07-0.569-0.396-1.605,0.746-1.502
		c0.895,0.081,0.877,0.932,0.803,1.658C634.326,117.654,634.795,118.614,633.934,118.943z"/>
	<path fill="#6D5985" d="M624.682,122.387c-0.865-0.558-1.563-1.224-1.543-2.673c1.614,0.32,2.26,1.451,2.805,2.701
		C625.514,122.793,625.094,122.783,624.682,122.387z"/>
	<path fill="#5E5683" d="M623.444,148.507c-0.651,1.098-1.577,1.856-2.794,2.252c-0.191-0.399-0.175-0.794,0.019-1.187
		c0.723-0.958,1.566-1.759,2.752-2.115C623.652,147.803,623.66,148.153,623.444,148.507z"/>
	<path fill="#665E89" d="M619.742,129.774c0.277,0.075,0.588,0.092,0.822,0.236c0.511,0.315,1.654,0.208,1.204,1.241
		c-0.261,0.599-1.06,0.297-1.573,0.097c-0.515-0.201-0.961-0.576-1.438-0.874C618.978,130.09,619.3,129.849,619.742,129.774z"/>
	<path fill="#5E6890" d="M649.745,152.675c0.671,0.527,1.718,1.167,0.935,2.01c-0.624,0.671-1.19-0.399-1.643-0.899
		c-0.292-0.322-0.489-0.73-0.728-1.099c0.136-0.123,0.272-0.246,0.408-0.37C649.083,152.366,649.428,152.482,649.745,152.675z"/>
	<path fill="#706890" d="M648.309,152.687c-0.108-0.096-0.253-0.171-0.318-0.29c-0.417-0.761-2.031-1.504-0.809-2.311
		c0.873-0.575,1.584,0.809,1.956,1.764c-0.149,0.213-0.314,0.412-0.495,0.599C648.644,152.448,648.309,152.687,648.309,152.687z"/>
	<path fill="#915884" d="M618.888,140.29c-0.452,0.502-1.013,0.645-1.661,0.504c-0.593-0.144-1.242-0.122-1.733-0.573
		c0.61-1.139,1.632-0.906,2.62-0.787C618.514,139.592,618.772,139.877,618.888,140.29z"/>
	<path fill="#494677" d="M633.934,118.943c0.286-0.602,0.571-1.205,0.857-1.807c0.136,1.331,0.63,2.674-0.049,4.037
		C633.614,120.662,634.097,119.693,633.934,118.943z"/>
	<path fill="#5D4A7A" d="M649.781,126.806c0.688-1.253,1.815-1.973,3.076-2.53c0.268,0.232,0.36,0.466,0.276,0.704
		c-0.084,0.239-0.17,0.359-0.257,0.359c-0.273,0.809-0.967,1.171-1.647,1.547C650.726,127.239,650.243,127.212,649.781,126.806z"/>
	<path fill="#787398" d="M618.103,130.361c-0.887,0.003-1.894-0.238-1.591-1.262c0.273-0.923,1.054-0.399,1.547,0.137
		C618.497,129.594,618.512,129.969,618.103,130.361z"/>
	<path fill="#5282A3" d="M656.525,134.932c-1.169,0.524-2.35,1.686-3.475-0.066c0.696-0.694,1.579-0.379,2.392-0.445
		C655.882,134.422,656.248,134.584,656.525,134.932z"/>
	<path fill="#492A62" d="M656.525,134.932c-0.257-0.132-0.53-0.191-0.819-0.177c-0.388-0.083-0.541-0.217-0.461-0.405
		c0.091-0.213,0.19-0.321,0.298-0.321c0.575-0.059,1.155-0.191,1.724-0.153c0.437,0.03,1.221-0.362,1.175,0.55
		c-0.009,0.18-0.672,0.367-1.054,0.475C657.12,134.977,656.814,134.926,656.525,134.932z"/>
	<path fill="#5B6A91" d="M626.539,123.232c0.713,0.403,1.171,1.187,0.303,1.503c-0.907,0.331-1.298-0.75-1.572-1.55
		C625.704,122.883,626.127,122.899,626.539,123.232z"/>
	<path fill="#9A638C" d="M655.544,134.028c-0.096,0.275-0.043,0.517,0.161,0.726c-0.884,0.037-1.77,0.074-2.655,0.111
		C653.561,133.633,654.583,133.923,655.544,134.028z"/>
	<path fill="#481956" d="M618.888,140.29c-0.258-0.285-0.516-0.571-0.774-0.856c0.279-0.041,0.556-0.102,0.836-0.117
		c0.548-0.03,1.504-0.177,1.511,0.276C620.476,140.539,619.486,140.168,618.888,140.29z"/>
	<path fill="#3A5884" d="M615.494,140.221c0.577,0.191,1.153,0.382,1.732,0.573C616.574,140.833,615.678,141.602,615.494,140.221z"
		/>
	<path fill="#532B63" d="M618.103,130.361c-0.015-0.375-0.03-0.75-0.044-1.125c0.561,0.179,1.122,0.359,1.682,0.538
		c-0.328,0.234-0.656,0.467-0.984,0.701C618.526,130.509,618.309,130.471,618.103,130.361z"/>
	<path fill="#61789B" d="M649.781,126.806c0.482,0.027,0.964,0.054,1.447,0.081c-0.257,0.536-0.667,0.885-1.274,0.739
		C649.462,127.509,649.363,127.181,649.781,126.806z"/>
	<path fill="#3F2E66" d="M655.56,145.34c0.293-0.239,0.585-0.478,0.878-0.716c0.44,0.07,0.896,0.41,0.658,0.744
		C656.699,145.925,656.079,145.529,655.56,145.34z"/>
	<path fill="#6B356A" d="M653.637,123.865c0.065-0.381,0.418-0.638,0.627-0.397c0.558,0.645,0.123,1.044-0.516,1.294
		c-0.28-0.168-0.39-0.356-0.33-0.566C653.482,123.976,653.554,123.865,653.637,123.865z"/>
	<path fill="#414375" d="M631.178,153.507c-0.208-0.251-0.416-0.501-0.624-0.752c0.066-0.342,0.34-0.54,0.569-0.325
		C631.414,152.704,631.483,153.131,631.178,153.507z"/>
	<path fill="#30205B" d="M653.637,123.865c0.037,0.3,0.073,0.599,0.111,0.898c-0.29,0.191-0.581,0.384-0.871,0.576
		c-0.006-0.354-0.012-0.709-0.018-1.063C653.117,124.139,653.377,124.002,653.637,123.865z"/>
	<path fill="#332760" d="M623.444,148.507c-0.007-0.35-0.015-0.699-0.022-1.049c0.393-0.119,0.832-0.005,0.822,0.367
		C624.238,148.059,623.728,148.28,623.444,148.507z"/>
	<path fill="#302760" d="M626.539,123.232c-0.423-0.015-0.846-0.031-1.269-0.046c-0.196-0.266-0.391-0.532-0.587-0.799
		c0.42,0.009,0.841,0.018,1.261,0.028C626.142,122.687,626.34,122.96,626.539,123.232z"/>
	<path fill="#33205B" d="M648.644,152.448c0.017-0.301,0.182-0.5,0.495-0.599c0.202,0.275,0.404,0.55,0.606,0.825
		C649.378,152.599,649.011,152.524,648.644,152.448z"/>
	<path fill="#33205B" d="M620.669,149.573c-0.006,0.396-0.013,0.791-0.019,1.187c-0.411,0.11-0.828-0.046-0.77-0.433
		C619.923,150.042,620.391,149.821,620.669,149.573z"/>
	<path fill="#454375" d="M645.458,117.831c-0.208-0.233-0.415-0.465-0.622-0.698C645.614,116.857,645.566,117.317,645.458,117.831z"
		/>
</g>
<g>
	<path fill="#D4DFF7" d="M833.707,555.467c0.674,0.804,1.241,1.272,2.577,1.014c8.514-1.646,17.065-3.102,25.606-4.607
		c1.843-0.325,2.683,0.116,2.97,1.829c0.939,5.6,1.779,11.217,2.658,16.827c-1.332,1.232-3.095,1.14-4.697,1.428
		c-7.471,1.344-14.928,2.77-22.44,3.868c-3.286,0.594-6.22-0.945-9.312-1.536c-7.856-1.308-15.052,0.311-21.589,4.854
		c-1.535,1.067-3.019,2.216-4.866,2.727c-7.179,1.529-14.432,2.649-21.655,3.934c-9.049,1.478-18.07,3.115-27.101,4.69
		c-1.367,0.238-2.536,0.914-3.78,1.433c-1.173-1.414-0.57-3.199-0.923-4.793c-1.006-4.536-1.518-9.179-2.406-13.744
		c-0.32-1.646,0.343-1.959,1.684-2.21c5.69-1.067,11.428-1.85,17.104-3.017c5.16-1.061,10.399-1.731,15.597-2.611
		c6.013-1.018,12.01-2.135,18.035-3.075c1.339-0.209,1.813-0.756,1.813-1.971c0.942,0.285,1.753,0.719,2.898,0.497
		c7.772-1.505,15.579-2.819,23.397-4.07C830.846,556.682,832.242,555.99,833.707,555.467z"/>
	<path fill="#1B60DB" d="M760.959,643.232c-1.001-5.41-2.045-10.813-2.995-16.233c-1.792-10.229-3.531-20.468-5.291-30.703
		c-0.773-2.812,1.311-3.052,3.144-3.413c6.9-1.356,13.85-2.432,20.781-3.605c0.839-0.106,1.683-0.192,2.495-0.46
		c0.493-0.132,0.993-0.217,1.5-0.267c5.899-0.662,7.009-0.004,8.856,5.691c3.824,11.791,7.241,23.708,10.926,35.542
		c1.497,4.808-0.125,7.26-5.07,8.331c-2.546,0.551-5.124,0.934-7.677,1.454c-7.413,1.096-14.75,2.635-22.155,3.77
		C763.992,643.568,762.435,644.296,760.959,643.232z"/>
	<path fill="#AAC0EE" d="M787.822,638.796c2.663-0.944,5.496-1.049,8.227-1.672c3.463-0.79,4.775-2.679,3.763-6.073
		c-2.743-9.196-5.567-18.368-8.372-27.545c-1.098-3.591-2.196-7.182-3.362-10.752c-1.071-3.277-2.405-4.027-5.855-3.51
		c-0.615,0.092-1.247,0.068-1.871,0.097c0.618-1.57,1.031-3.258,2.494-4.342c7.292-1.386,14.588-2.747,21.939-3.79
		c1.76,1.041,0.116,1.851-0.304,2.527c-1.592,2.561-3.377,4.995-4.456,7.855c-4.435,11.759-1.624,22.422,8.437,31.843
		c4.896,3.829,10.323,6.102,16.662,5.874c1.644-0.059,3.327-0.235,4.935,0.357c0.301,0.145,0.493,0.383,0.575,0.707
		c-1.114,1.758-2.915,1.023-4.455,1.202c-1.285,0.15-2.832-0.359-3.664,1.003c-0.962,1.573,0.47,2.641,1.134,3.846
		c-2.902,1.158-6.026,1.237-9.045,1.8c-6.7,1.248-13.447,2.244-20.155,3.454c-1.34,0.242-2.657,0.383-4.003,0.401
		C787.568,642.193,787.221,641.758,787.822,638.796z"/>
	<path fill="#1B60DB" d="M868.112,574.337c1.201,3.995,1.589,8.148,2.323,12.231c2.044,11.363,3.936,22.753,5.888,34.133
		c0.758,2.154-0.073,3.458-2.222,3.902c-2.859,0.59-5.726,1.224-8.647,1.367c-3.322,0.163-5.029-1.223-5.766-4.479
		c-0.322-1.424-0.621-2.866-0.621-4.332c0.005-11.784-1.171-23.522-1.358-35.299C857.611,575.77,862.097,572.496,868.112,574.337z"
		/>
	<path fill="#9EB7EC" d="M868.112,574.337c-2.043,0.391-4.103,0.708-6.124,1.19c-2.555,0.61-3.592,2.1-3.487,4.754
		c0.299,7.595,0.346,15.212,0.987,22.779c0.502,5.922,0.096,11.873,0.933,17.769c0.481,3.388,1.764,4.636,5.15,4.27
		c2.994-0.323,5.952-0.964,8.936-1.393c1.907-0.274,1.751-1.68,1.815-3.006c1.217,1.759,0.282,3.882,0.983,5.768
		c0.348,0.936-0.677,1.045-1.414,1.171c-4.816,0.821-9.626,1.682-14.444,2.486c-2.969,0.496-5.892,1.33-8.94,1.289
		c-1.944,0.738-2.987-0.211-3.377-1.98c-0.643-2.912-1.407-5.82-1.21-8.849c0.279-1.814,1.466-3.199,2.284-4.761
		c5.158-9.845,5.125-19.626-0.712-29.135c-2.303-3.753-5.569-6.72-9.32-9.12c-0.963-0.616-2.894-1.46-0.262-2.584
		c4.392-0.742,8.77-1.579,13.179-2.2c4.822-0.679,9.526-2.097,14.427-2.255C868.12,571.736,868.172,573.028,868.112,574.337z"/>
	<path fill="#ABC1EE" d="M833.707,555.467c-0.147,1.19-0.784,1.749-2.011,1.948c-7.515,1.22-15.019,2.506-22.525,3.781
		c-1.318,0.224-2.671,0.405-3.94,0.714c-1.528,0.372-1.622-0.77-2.249-1.404c-0.362-2.35-0.682-4.707-1.099-7.046
		c-0.451-2.532-0.291-2.949,2.204-3.402c5.19-0.943,10.4-1.778,15.6-2.667c3.363-0.575,6.722-1.171,10.084-1.751
		c2.006-0.346,2.34-0.134,2.62,1.869C832.762,550.173,833.637,552.754,833.707,555.467z"/>
	<path fill="#A2BBED" d="M848.678,620.093c-0.138,3.303,0.933,6.442,1.31,9.676c0.176,1.507,1.34,1.615,2.52,1.646
		c-2.315,1.003-4.833,1-7.26,1.446c-5.306,0.976-10.616,1.927-15.932,2.849c-0.814,0.141-1.663,0.076-2.496,0.107
		c-0.57,0.467-1.384,0.034-1.947,0.526c-0.408,0.027-0.817,0.054-1.225,0.082c-1.622-0.456-2.679-1.913-2.509-3.458
		c0.162-1.468,0.97-2.146,2.755-2.196c1.544-0.044,3.09-0.01,4.634-0.012c0.721-0.001,1.458,0.044,1.969-0.622
		c6.399-2.26,12.335-5.311,17.288-10.062C847.996,619.873,848.381,619.969,848.678,620.093z"/>
	<path fill="#AFC3EF" d="M782.847,585c-0.189,0.465-0.579,0.952-0.531,1.391c0.173,1.586-0.813,2.301-1.963,2.952
		c-0.366,0.035-0.732,0.07-1.098,0.105c-0.622,0.382-1.407,0.051-2.021,0.466c-5.871,1.397-11.875,2.055-17.789,3.21
		c-1.632,0.319-3.277,0.579-4.924,0.804c-1.427,0.195-1.9,1.059-1.847,2.369c-1.063-1.339-0.268-2.93-0.595-4.369
		c0.063-0.969,0.17-1.734,1.473-1.945c6.011-0.973,11.995-2.111,18.003-3.096C775.321,586.268,779.02,585.251,782.847,585z"/>
	<path fill="#AFC4F0" d="M787.822,638.796c0.41,2.783,0.414,2.788,2.624,3.283c-2.675,1.234-5.62,1.238-8.439,1.783
		c-5.59,1.081-11.229,1.912-16.831,2.934c-3.526,0.643-4.023,0.286-4.216-3.564C769.921,641.796,778.803,639.881,787.822,638.796z"
		/>
	<path fill="#AAC0EE" d="M824.874,636.342c0.507-0.701,1.241-0.558,1.947-0.526C826.294,636.443,825.587,636.407,824.874,636.342z"
		/>
	<path fill="#B3C7F0" d="M848.678,620.093c-2.501,1.844-4.51,4.241-7.21,5.91c-3.427,2.119-6.993,3.601-10.969,4.132
		c0,0,0.003-0.011,0.003-0.011c-0.149-4.069,0.782-7.22,4.967-9.34c10.404-5.271,14.243-16.067,10.294-27.572
		c-1.621-3.369-3.602-6.462-6.714-8.68c-0.247-0.141-0.483-0.297-0.721-0.451c-0.375-0.214-0.748-0.433-1.121-0.652
		c-2.274-1.551-4.82-2.433-7.478-3.057c-2.805-0.912-3.609-2.01-3.038-4.356c0.585-2.405,2.161-3.076,4.44-2.315
		c1.287-0.161,2.503,0.204,3.635,0.702c1.68,0.739,3.378,0.865,5.147,0.583c-0.003,0.481-1.461,0.76-0.349,1.315
		c3.531,1.764,6.18,4.538,8.753,7.397c3.441,3.825,5.16,8.433,6.022,13.444c1.399,8.131-0.803,15.379-5.232,22.117
		C848.935,619.518,848.819,619.814,848.678,620.093z"/>
	<path fill="#BBCDF2" d="M831.13,573.7c-3.033,0.228-3.659,0.805-3.78,3.208c-0.079,1.57,0.255,2.609,2.126,2.502
		c0.33-0.019,0.683,0.36,1.026,0.555c-0.458,0.566-1.099,0.699-1.771,0.758c-13.181-0.924-21.926,5.933-24.068,18.959
		c-0.609,3.701,0.449,7.196,1.705,10.625c0.185,0.519,0.313,1.06,0.538,1.566c0.134,0.223,0.261,0.452,0.398,0.674
		c0.156,0.211,0.298,0.432,0.44,0.654c0.16,0.218,0.306,0.443,0.457,0.666c0.913,1.657,3.344,2.397,2.942,4.853
		c-0.464,1.25-0.525,2.62-1.08,3.829c-0.393,0.856-0.651,2.145-2.136,1.312c-5.53-4.371-8.791-9.961-10.14-16.966
		c-1.781-9.245,1.116-16.995,6.485-24.205c0.313-0.421,1.213-0.689,0.513-1.48c2.582-1.301,4.778-3.195,7.274-4.654
		c5.743-3.357,11.921-3.843,18.315-3.36C830.637,573.217,830.878,573.526,831.13,573.7z"/>
	<path fill="#FFFFFF" d="M757.192,584.473c-1.305,0.486-1.803-0.193-1.964-1.669c-0.201-1.847-0.575-3.682-0.986-5.497
		c-0.289-1.275,0.058-2.06,1.358-2.282c5.103-0.871,10.209-1.726,15.317-2.568c1.737-0.287,3.493-0.468,5.221-0.798
		c0.905-0.173,1.45,0.076,1.616,0.945c0.427,2.237,0.818,4.481,1.194,6.727c0.168,1.001-0.349,1.638-1.296,1.796
		C770.91,582.247,764.164,583.336,757.192,584.473z"/>
	<path fill="#AAC0EE" d="M777.233,589.913c0.55-0.687,1.298-0.52,2.02-0.466C778.676,590.015,777.965,590.007,777.233,589.913z"/>
	<path fill="#B7CAF1" d="M807.928,623.861c1.718-0.38,1.588-1.927,1.817-3.12c0.197-1.025,0.182-2.034,1.315-2.522
		c0,0,0.295,0.054,0.295,0.052c0.185,0.077,0.35,0.187,0.496,0.323c0.002-0.005,0.214,0.201,0.217,0.195
		c0.146,0.123,0.287,0.255,0.43,0.382c0.004-0.007,0.227,0.174,0.232,0.167c0.169,0.09,0.335,0.185,0.507,0.273
		c0.184,0.073,0.357,0.165,0.527,0.264c0.269,0.141,0.539,0.276,0.814,0.406c0.194,0.085,0.375,0.189,0.551,0.305
		c0.18,0.116,0.352,0.242,0.526,0.367c0.096,0.053,0.185,0.113,0.28,0.165c0.31,0.138,0.629,0.244,0.956,0.34
		c0.24,0.063,0.467,0.146,0.694,0.239c0.362,0.14,0.72,0.282,1.088,0.413c0.273,0.07,0.536,0.155,0.803,0.241
		c0.208,0.037,0.408,0.088,0.609,0.131c8.994,1.947,10.861,1.076,14.951-6.966c0.28-0.551,0.547-1.11,0.857-1.644
		c0.785-1.311,1.86-2.413,2.678-3.699c0.207-0.313,0.429-0.62,0.636-0.932c0.116-0.204,0.249-0.402,0.38-0.597
		c0.174-0.297,0.339-0.6,0.484-0.916c0.083-0.219,0.175-0.432,0.261-0.65c0.147-0.473,0.186-0.962,0.239-1.452
		c0.04-0.416,0.116-0.822,0.223-1.225c0.34-1.785-0.108-3.649,0.554-5.398c2.049-1.835,2.574-4.805,4.825-6.492
		c1.265,1.393,1.419,3.252,1.682,4.918c1.707,10.815-3.201,20.146-13.083,24.627c-1.799,0.815-2.887,1.935-3.018,3.924
		c-0.097,1.475-0.663,2.814-1.252,4.144c-4.019-0.186-8.091,0.547-12.053-0.637C814.563,628.327,810.846,626.837,807.928,623.861z"
		/>
	<path fill="#BFD0F2" d="M846.173,592.513c-0.93,1.826-1.84,3.664-2.801,5.474c-0.317,0.597-0.946,0.762-1.594,0.796
		c-1.053,0.219-1.176-0.66-1.367-1.279c-0.806-2.609-2.348-4.766-4.039-6.844c-0.16-0.253-0.285-0.523-0.393-0.801
		c-0.095-0.282-0.124-0.574-0.108-0.87c0.831-1.801,1.557-3.66,2.781-5.256c3.081,1.128,4.596,3.82,6.268,6.335
		C845.424,590.825,845.76,591.694,846.173,592.513z"/>
	<path fill="#C6D5F4" d="M838.652,583.732c0.025,2.266-1.417,3.88-2.514,5.647c-3.085,0.055-5.348-2.377-8.299-2.735
		c-1.698-0.785-1.708-2.055-1.019-3.532c0.512-1.096,0.904-2.261,1.797-3.139c0.628-0.003,1.256-0.005,1.884-0.008
		c2.855,0.215,5.237,1.562,7.521,3.142C838.217,583.332,838.425,583.542,838.652,583.732L838.652,583.732z"/>
	<path fill="#BFD0F2" d="M838.651,583.733c-0.21-0.208-0.419-0.417-0.629-0.625C838.232,583.316,838.442,583.524,838.651,583.733z"
		/>
	<path fill="#CFDBF6" d="M828.618,579.973c0.15,1.426-0.571,2.598-1.262,3.702c-0.748,1.195-0.113,1.847,0.639,2.565
		c-1.451,1.336-3.307,0.643-4.959,0.974c-1.306,0.261-2.556,0.659-3.763,1.201c-3.402,2.013-6.147,4.609-7.476,8.457
		c-0.073,0.28-0.164,0.553-0.255,0.826c-0.189,0.56-0.254,1.14-0.268,1.729c-0.365,3.333,0.474,6.503,1.293,9.676
		c-1.652,1.685-2.368,4.418-5.261,4.723c-0.003-0.206-0.006-0.413-0.007-0.619c-0.215-0.202-0.403-0.431-0.621-0.631l-0.001-0.001
		c-0.367-0.338-0.233-0.928-0.628-1.252c-3.944-8.053-3.049-15.811,2.131-22.856C813.171,581.675,820.183,578.905,828.618,579.973z"
		/>
	<path fill="#C8D6F4" d="M807.305,613.825c1.122-0.625,1.943-1.534,2.583-2.64c0.536-0.926,1.214-1.707,2.412-1.739
		c1.644,0.628,2.286,2.32,3.56,3.355c1.703,1.384,3.507,2.513,5.628,3.159c0.888,0.27,2.194,0.187,2.208,1.683
		c-1.455,0.874-2.626,1.99-3.408,3.547c-0.323,0.643-0.5,1.721-1.702,1.415l-0.312-0.001l-0.312,0.001
		c-0.185-0.233-0.436-0.399-0.63-0.624c-0.208-0.002-0.417-0.003-0.625-0.003c-0.327-0.393-0.915-0.261-1.256-0.625
		c-0.197-0.22-0.427-0.407-0.627-0.623c-0.209-0.001-0.418-0.002-0.627-0.004c-0.181-0.236-0.433-0.401-0.627-0.624
		c-0.208-0.003-0.416-0.004-0.624-0.005c-0.191-0.228-0.421-0.416-0.63-0.625c-0.203-0.214-0.412-0.423-0.627-0.625l-0.003-0.001
		c-0.206-0.21-0.393-0.439-0.624-0.624c0,0-0.003-0.002-0.003-0.002C810.135,616.476,808.222,615.576,807.305,613.825z"/>
	<path fill="#C8D6F4" d="M806.047,611.322c0.503,0.27,0.616,0.736,0.628,1.252C806.171,612.304,806.059,611.838,806.047,611.322z"/>
	<path fill="#C8D6F4" d="M806.676,612.575c0.207,0.21,0.414,0.421,0.621,0.631C807.091,612.995,806.883,612.785,806.676,612.575z"/>
	<path fill="#D7E2F7" d="M818.586,588.124c1.521-1.414,3.406-1.806,5.388-1.872c1.339-0.045,2.68-0.011,4.02-0.012
		c3.164-0.12,5.513,1.876,8.144,3.139l0.002,0c0.196,0.222,0.405,0.432,0.628,0.626c2.43,2.492,3.859,5.555,5.01,8.778
		c-0.257,2.089,0.643,4.289-0.611,6.281c-1.618-0.085-2.854-1.054-4.186-1.806c-1.203-1.221-1.02-2.881-1.335-4.369
		c-0.904-4.263-1.157-4.455-5.334-3.68c-1.208,0.224-2.407,0.683-3.667,0.303C824.68,592.266,820.949,590.941,818.586,588.124z"/>
	<path fill="#BBCDF2" d="M818.586,622.606c0.675-1.147,1.478-2.239,1.991-3.455c0.616-1.46,1.706-1.656,3.031-1.565
		c2.646-1.407,5.771-0.889,8.459-2.109c0.526-0.182,1.06-0.351,1.546-0.634c0.217-0.157,0.441-0.305,0.659-0.461
		c0.771-0.429,1.422-1.398,2.484-0.583c-1.195,2.534-2.552,4.978-3.928,7.419c-0.739,1.311-1.641,2.164-3.046,2.33
		C825.996,623.995,822.186,624.471,818.586,622.606z"/>
	<path fill="#DFE8F8" d="M836.756,613.799c-1.068-0.035-1.619,0.944-2.502,1.273c-3.171-2.33-6.126-4.98-9.791-6.579
		c-0.303-0.132-0.36-0.467-0.314-0.794c3.025-2.008,6.555-1.763,9.92-2.24c1.08,0,2.235,0.15,2.604-1.297
		c0.155-0.391,0.358-0.747,0.712-0.992c1.662-0.172,2.677,0.951,3.782,1.893c-0.01,0.415-0.02,0.83-0.03,1.245
		c-0.373,0.334-0.244,0.912-0.607,1.252c-0.382,0.333-0.27,0.911-0.623,1.258l0.002-0.002c-0.398,0.324-0.255,0.92-0.63,1.256
		C838.794,611.555,837.574,612.541,836.756,613.799z"/>
	<path fill="#D7E2F7" d="M839.279,610.072c0.008-0.52,0.12-0.988,0.63-1.256C839.896,609.334,839.778,609.799,839.279,610.072z"/>
	<path fill="#D7E2F7" d="M840.53,607.56c0.009-0.511,0.115-0.975,0.607-1.252C841.142,606.826,841.027,607.286,840.53,607.56z"/>
	<path fill="#D7E2F7" d="M839.907,608.818c0.006-0.519,0.118-0.986,0.623-1.258C840.522,608.078,840.407,608.543,839.907,608.818z"
		/>
	<path fill="#BBCDF2" d="M815.451,621.353c0.517,0.011,0.983,0.124,1.256,0.625C816.19,621.968,815.723,621.857,815.451,621.353z"/>
	<path fill="#BBCDF2" d="M811.062,618.221c0.208,0.208,0.416,0.416,0.624,0.624C811.478,618.638,811.27,618.43,811.062,618.221z"/>
	<path fill="#BBCDF2" d="M811.689,618.847c0.209,0.208,0.418,0.417,0.627,0.625C812.107,619.264,811.898,619.055,811.689,618.847z"
		/>
	<path fill="#BBCDF2" d="M812.316,619.472c0.21,0.208,0.42,0.417,0.63,0.625C812.736,619.889,812.526,619.681,812.316,619.472z"/>
	<path fill="#BBCDF2" d="M813.57,620.102c0.209,0.208,0.418,0.416,0.627,0.624C813.988,620.518,813.779,620.31,813.57,620.102z"/>
	<path fill="#BBCDF2" d="M814.824,620.73c0.209,0.208,0.418,0.415,0.627,0.623C815.242,621.145,815.033,620.938,814.824,620.73z"/>
	<path fill="#BBCDF2" d="M817.332,621.982c0.21,0.208,0.42,0.416,0.63,0.624C817.752,622.398,817.542,622.19,817.332,621.982z"/>
	<path fill="#C6D5F4" d="M836.768,590.005c-0.209-0.209-0.419-0.417-0.628-0.626C836.349,589.588,836.559,589.796,836.768,590.005z"
		/>
	<path fill="#E6ECFA" d="M824.049,608.069c1.505-0.049,2.791,0.485,3.988,1.377c1.564,1.165,3.187,2.252,4.776,3.384
		c0.775,0.552,1.437,1.19,1.44,2.244c0,0-0.003,0.006-0.003,0.006c-0.337,0.363-0.912,0.257-1.244,0.63
		c-2.903,1.777-6.122,1.971-9.398,1.877c-2.123-1.18-4.654-1.329-6.659-2.931c-1.874-1.497-3.636-2.989-4.65-5.208
		c-2.081-3.3-1.984-6.979-1.858-10.663c0.396-0.326,0.237-0.924,0.618-1.257c0.001-0.207,0.003-0.415,0.007-0.622
		c1.727-1.124,2.812,0.106,3.969,1.079c0.379,0.563,0.509,1.202,0.57,1.862c0.053,0.919,0.055,1.85,0.491,2.702
		c0.238,0.564,0.507,1.135,0.57,1.738c0.29,2.767,1.55,4.084,4.488,3.292C822.124,607.316,823.189,607.296,824.049,608.069z"/>
	<path fill="#DEE6F8" d="M814.915,598.181c-1.43,0.017-2.294-1.67-3.849-1.277c1.099-4.132,3.892-6.814,7.52-8.781
		c2.663,1.44,5.237,2.999,7.387,5.177c0.549,0.556,0.456,1.057,0.138,1.631c-0.447,0.944-1.318,1.259-2.238,1.404
		C820.857,596.81,817.876,597.443,814.915,598.181z"/>
	<path fill="#DEE6F8" d="M811.06,597.527c-0.008,0.516-0.118,0.983-0.618,1.257C810.448,598.266,810.558,597.8,811.06,597.527z"/>
	<path fill="#141251" d="M814.915,598.181c0.884-1.307,2.259-1.597,3.688-1.845c2.508-0.435,5.005-0.933,7.507-1.404
		c2.096-0.026,4.106-0.621,6.157-0.942c2.572-0.402,3.325,0.148,3.832,2.777c0.413,2.138,0.5,4.341,1.285,6.404
		c-0.016,0.366-0.033,0.733-0.049,1.099c-0.396,1.326-1.48,1.713-2.67,1.956c-3.601,0.256-7.137,0.895-10.617,1.843
		c-1.579-0.088-3.083,0.381-4.622,0.598c-1.881,0.265-2.699-0.323-3.167-2.174c-0.329-1.305-0.258-2.7-0.849-3.953
		c-0.529-0.858-0.052-1.901-0.508-2.773C814.907,599.238,814.911,598.709,814.915,598.181z"/>
	<path fill="#DFE8F8" d="M833.006,615.709c0.268-0.501,0.731-0.615,1.245-0.63C833.985,615.583,833.522,615.699,833.006,615.709z"/>
	<path fill="#D7E2F7" d="M834.666,606.225c1.012-0.485,2.045-0.942,2.67-1.956C837.355,606.162,836.164,606.403,834.666,606.225z"/>
	<path fill="#DEE6F8" d="M814.903,599.766c0.551,0.854,0.6,1.801,0.508,2.773C814.511,601.749,814.88,600.726,814.903,599.766z"/>
</g>
</svg>
